<mxfile host="app.diagrams.net" modified="2022-03-21T11:43:49.632Z" agent="5.0 (Windows NT 10.0; Win64; x64) AppleWebKit/537.36 (KHTML, like Gecko) Chrome/99.0.4844.51 Safari/537.36 Edg/99.0.1150.39" etag="19nkc_pSfAiIc5ejnFLe" version="17.1.3" type="github">
  <diagram id="DxHJc_R2YyCujJNMF_Zv" name="Page-1">
    <mxGraphModel dx="1886" dy="694" grid="1" gridSize="10" guides="1" tooltips="1" connect="1" arrows="1" fold="1" page="1" pageScale="1" pageWidth="827" pageHeight="1169" math="0" shadow="0">
      <root>
        <mxCell id="0" />
        <mxCell id="1" parent="0" />
        <mxCell id="ZXpeuByK33yPIrJJZpgC-1" value="" style="rounded=0;whiteSpace=wrap;html=1;fontSize=14;" parent="1" vertex="1">
          <mxGeometry x="1040" y="2530" width="1290" height="1380" as="geometry" />
        </mxCell>
        <mxCell id="ZXpeuByK33yPIrJJZpgC-133" value="" style="rounded=0;whiteSpace=wrap;html=1;fontSize=14;fillColor=#ffe6cc;strokeColor=#d79b00;" parent="1" vertex="1">
          <mxGeometry x="1220" y="2850" width="980" height="850" as="geometry" />
        </mxCell>
        <mxCell id="ZXpeuByK33yPIrJJZpgC-130" value="" style="rounded=0;whiteSpace=wrap;html=1;fillColor=#dae8fc;strokeColor=#6c8ebf;" parent="1" vertex="1">
          <mxGeometry x="1370" y="3470" width="810" height="200" as="geometry" />
        </mxCell>
        <mxCell id="ZXpeuByK33yPIrJJZpgC-129" value="" style="rounded=0;whiteSpace=wrap;html=1;fillColor=#dae8fc;strokeColor=#6c8ebf;" parent="1" vertex="1">
          <mxGeometry x="1367.5" y="2880" width="810" height="123" as="geometry" />
        </mxCell>
        <mxCell id="QqDQ2wGyLcQJu00NtUJg-209" value="" style="rounded=0;whiteSpace=wrap;html=1;fontSize=18;strokeColor=#66B2FF;" parent="1" vertex="1">
          <mxGeometry x="1110" y="1800" width="890" height="630" as="geometry" />
        </mxCell>
        <mxCell id="JhATvFRGc8RiKFNdU_sc-145" value="" style="rounded=0;whiteSpace=wrap;html=1;fontSize=18;strokeColor=#66B2FF;" parent="1" vertex="1">
          <mxGeometry x="1110" y="1005" width="890" height="770" as="geometry" />
        </mxCell>
        <mxCell id="JhATvFRGc8RiKFNdU_sc-17" value="Y" style="edgeStyle=orthogonalEdgeStyle;rounded=0;orthogonalLoop=1;jettySize=auto;html=1;fontSize=14;" parent="1" source="JhATvFRGc8RiKFNdU_sc-5" target="JhATvFRGc8RiKFNdU_sc-9" edge="1">
          <mxGeometry relative="1" as="geometry" />
        </mxCell>
        <mxCell id="JhATvFRGc8RiKFNdU_sc-31" value="N" style="edgeStyle=orthogonalEdgeStyle;rounded=0;orthogonalLoop=1;jettySize=auto;html=1;exitX=1;exitY=0.5;exitDx=0;exitDy=0;fontSize=14;endArrow=none;endFill=0;" parent="1" source="JhATvFRGc8RiKFNdU_sc-5" edge="1">
          <mxGeometry relative="1" as="geometry">
            <mxPoint x="190" y="150" as="targetPoint" />
          </mxGeometry>
        </mxCell>
        <mxCell id="JhATvFRGc8RiKFNdU_sc-5" value="用户基本信息校验" style="rhombus;whiteSpace=wrap;html=1;shadow=0;fontFamily=Helvetica;fontSize=12;align=center;strokeWidth=1;spacing=6;spacingTop=-4;" parent="1" vertex="1">
          <mxGeometry x="30" y="110" width="100" height="80" as="geometry" />
        </mxCell>
        <mxCell id="JhATvFRGc8RiKFNdU_sc-22" value="" style="edgeStyle=orthogonalEdgeStyle;rounded=0;orthogonalLoop=1;jettySize=auto;html=1;fontSize=14;" parent="1" source="JhATvFRGc8RiKFNdU_sc-6" target="JhATvFRGc8RiKFNdU_sc-12" edge="1">
          <mxGeometry relative="1" as="geometry" />
        </mxCell>
        <mxCell id="JhATvFRGc8RiKFNdU_sc-6" value="新增人员" style="rounded=1;whiteSpace=wrap;html=1;fontSize=12;glass=0;strokeWidth=1;shadow=0;" parent="1" vertex="1">
          <mxGeometry x="20" y="470" width="120" height="40" as="geometry" />
        </mxCell>
        <mxCell id="JhATvFRGc8RiKFNdU_sc-28" value="N" style="edgeStyle=orthogonalEdgeStyle;rounded=0;orthogonalLoop=1;jettySize=auto;html=1;exitX=1;exitY=0.5;exitDx=0;exitDy=0;fontSize=14;endArrow=none;endFill=0;" parent="1" source="JhATvFRGc8RiKFNdU_sc-9" edge="1">
          <mxGeometry relative="1" as="geometry">
            <mxPoint x="190" y="270" as="targetPoint" />
          </mxGeometry>
        </mxCell>
        <mxCell id="JhATvFRGc8RiKFNdU_sc-9" value="人员基本信息校验" style="rhombus;whiteSpace=wrap;html=1;shadow=0;fontFamily=Helvetica;fontSize=12;align=center;strokeWidth=1;spacing=6;spacingTop=-4;" parent="1" vertex="1">
          <mxGeometry x="30" y="230" width="100" height="80" as="geometry" />
        </mxCell>
        <mxCell id="JhATvFRGc8RiKFNdU_sc-21" value="" style="edgeStyle=orthogonalEdgeStyle;rounded=0;orthogonalLoop=1;jettySize=auto;html=1;fontSize=14;" parent="1" source="JhATvFRGc8RiKFNdU_sc-11" target="JhATvFRGc8RiKFNdU_sc-6" edge="1">
          <mxGeometry relative="1" as="geometry" />
        </mxCell>
        <mxCell id="JhATvFRGc8RiKFNdU_sc-11" value="新增用户" style="rounded=1;whiteSpace=wrap;html=1;fontSize=12;glass=0;strokeWidth=1;shadow=0;" parent="1" vertex="1">
          <mxGeometry x="20" y="360" width="120" height="40" as="geometry" />
        </mxCell>
        <mxCell id="JhATvFRGc8RiKFNdU_sc-12" value="&lt;font style=&quot;font-size: 14px&quot;&gt;结束&lt;/font&gt;" style="strokeWidth=2;html=1;shape=mxgraph.flowchart.terminator;whiteSpace=wrap;fillColor=#ffe6cc;strokeColor=#d79b00;" parent="1" vertex="1">
          <mxGeometry x="40" y="560" width="80" height="50" as="geometry" />
        </mxCell>
        <mxCell id="JhATvFRGc8RiKFNdU_sc-16" value="" style="edgeStyle=orthogonalEdgeStyle;rounded=0;orthogonalLoop=1;jettySize=auto;html=1;fontSize=14;" parent="1" source="JhATvFRGc8RiKFNdU_sc-13" target="JhATvFRGc8RiKFNdU_sc-5" edge="1">
          <mxGeometry relative="1" as="geometry" />
        </mxCell>
        <mxCell id="JhATvFRGc8RiKFNdU_sc-13" value="&lt;font style=&quot;font-size: 14px&quot;&gt;开始&lt;/font&gt;" style="strokeWidth=2;html=1;shape=mxgraph.flowchart.terminator;whiteSpace=wrap;fillColor=#ffe6cc;strokeColor=#d79b00;" parent="1" vertex="1">
          <mxGeometry x="40" y="10" width="80" height="50" as="geometry" />
        </mxCell>
        <mxCell id="JhATvFRGc8RiKFNdU_sc-20" value="Y" style="edgeStyle=orthogonalEdgeStyle;rounded=0;orthogonalLoop=1;jettySize=auto;html=1;fontSize=14;" parent="1" target="JhATvFRGc8RiKFNdU_sc-11" edge="1">
          <mxGeometry relative="1" as="geometry">
            <mxPoint x="80" y="310" as="sourcePoint" />
          </mxGeometry>
        </mxCell>
        <mxCell id="JhATvFRGc8RiKFNdU_sc-32" value="" style="endArrow=classic;html=1;rounded=0;fontSize=14;entryX=1;entryY=0.5;entryDx=0;entryDy=0;entryPerimeter=0;edgeStyle=elbowEdgeStyle;" parent="1" target="JhATvFRGc8RiKFNdU_sc-12" edge="1">
          <mxGeometry width="50" height="50" relative="1" as="geometry">
            <mxPoint x="190" y="150" as="sourcePoint" />
            <mxPoint x="190" y="830" as="targetPoint" />
            <Array as="points">
              <mxPoint x="190" y="500" />
            </Array>
          </mxGeometry>
        </mxCell>
        <mxCell id="JhATvFRGc8RiKFNdU_sc-33" value="用户管理" style="shape=umlLifeline;perimeter=lifelinePerimeter;container=1;collapsible=0;recursiveResize=0;rounded=0;shadow=0;strokeWidth=1;" parent="1" vertex="1">
          <mxGeometry x="400" y="40" width="100" height="430" as="geometry" />
        </mxCell>
        <mxCell id="JhATvFRGc8RiKFNdU_sc-34" value="" style="points=[];perimeter=orthogonalPerimeter;rounded=0;shadow=0;strokeWidth=1;" parent="JhATvFRGc8RiKFNdU_sc-33" vertex="1">
          <mxGeometry x="45" y="70" width="10" height="320" as="geometry" />
        </mxCell>
        <mxCell id="JhATvFRGc8RiKFNdU_sc-61" value="" style="points=[];perimeter=orthogonalPerimeter;rounded=0;shadow=0;strokeWidth=1;" parent="JhATvFRGc8RiKFNdU_sc-33" vertex="1">
          <mxGeometry x="49" y="350" width="10" height="30" as="geometry" />
        </mxCell>
        <mxCell id="JhATvFRGc8RiKFNdU_sc-62" value="12、用户角色关系新增" style="edgeStyle=orthogonalEdgeStyle;html=1;align=left;spacingLeft=2;endArrow=block;rounded=0;entryX=1;entryY=0;fontSize=14;" parent="JhATvFRGc8RiKFNdU_sc-33" edge="1">
          <mxGeometry relative="1" as="geometry">
            <mxPoint x="59" y="350" as="sourcePoint" />
            <Array as="points">
              <mxPoint x="89" y="350" />
            </Array>
            <mxPoint x="64" y="370" as="targetPoint" />
          </mxGeometry>
        </mxCell>
        <mxCell id="JhATvFRGc8RiKFNdU_sc-37" value="人员管理" style="shape=umlLifeline;perimeter=lifelinePerimeter;container=1;collapsible=0;recursiveResize=0;rounded=0;shadow=0;strokeWidth=1;" parent="1" vertex="1">
          <mxGeometry x="580" y="40" width="100" height="430" as="geometry" />
        </mxCell>
        <mxCell id="JhATvFRGc8RiKFNdU_sc-38" value="" style="points=[];perimeter=orthogonalPerimeter;rounded=0;shadow=0;strokeWidth=1;" parent="JhATvFRGc8RiKFNdU_sc-37" vertex="1">
          <mxGeometry x="45" y="80" width="10" height="210" as="geometry" />
        </mxCell>
        <mxCell id="JhATvFRGc8RiKFNdU_sc-52" value="" style="points=[];perimeter=orthogonalPerimeter;rounded=0;shadow=0;strokeWidth=1;" parent="JhATvFRGc8RiKFNdU_sc-37" vertex="1">
          <mxGeometry x="50" y="149" width="10" height="30" as="geometry" />
        </mxCell>
        <mxCell id="JhATvFRGc8RiKFNdU_sc-54" value="5、人员部门关系新增" style="edgeStyle=orthogonalEdgeStyle;html=1;align=left;spacingLeft=2;endArrow=block;rounded=0;entryX=1;entryY=0;fontSize=14;" parent="JhATvFRGc8RiKFNdU_sc-37" edge="1">
          <mxGeometry relative="1" as="geometry">
            <mxPoint x="60" y="149" as="sourcePoint" />
            <Array as="points">
              <mxPoint x="90" y="149" />
            </Array>
            <mxPoint x="65" y="169" as="targetPoint" />
          </mxGeometry>
        </mxCell>
        <mxCell id="JhATvFRGc8RiKFNdU_sc-59" value="10、角色信息校验" style="verticalAlign=bottom;endArrow=block;shadow=0;strokeWidth=1;rounded=0;" parent="JhATvFRGc8RiKFNdU_sc-37" target="JhATvFRGc8RiKFNdU_sc-48" edge="1">
          <mxGeometry relative="1" as="geometry">
            <mxPoint x="-125" y="310.0000000000001" as="sourcePoint" />
            <mxPoint x="45" y="310.0000000000001" as="targetPoint" />
          </mxGeometry>
        </mxCell>
        <mxCell id="JhATvFRGc8RiKFNdU_sc-39" value="9、return" style="verticalAlign=bottom;endArrow=open;dashed=1;endSize=8;exitX=0;exitY=0.95;shadow=0;strokeWidth=1;rounded=0;" parent="1" edge="1">
          <mxGeometry relative="1" as="geometry">
            <mxPoint x="455" y="329.4999999999998" as="targetPoint" />
            <mxPoint x="625" y="329.4999999999998" as="sourcePoint" />
          </mxGeometry>
        </mxCell>
        <mxCell id="JhATvFRGc8RiKFNdU_sc-40" value="2、人员新增" style="verticalAlign=bottom;endArrow=block;entryX=0;entryY=0;shadow=0;strokeWidth=1;rounded=0;" parent="1" source="JhATvFRGc8RiKFNdU_sc-34" target="JhATvFRGc8RiKFNdU_sc-38" edge="1">
          <mxGeometry relative="1" as="geometry">
            <mxPoint x="555" y="120" as="sourcePoint" />
          </mxGeometry>
        </mxCell>
        <mxCell id="JhATvFRGc8RiKFNdU_sc-43" value="1、新增请求" style="html=1;verticalAlign=bottom;startArrow=oval;startFill=1;endArrow=block;startSize=8;rounded=0;fontSize=14;" parent="1" edge="1">
          <mxGeometry width="60" relative="1" as="geometry">
            <mxPoint x="385" y="111" as="sourcePoint" />
            <mxPoint x="445" y="111" as="targetPoint" />
          </mxGeometry>
        </mxCell>
        <mxCell id="JhATvFRGc8RiKFNdU_sc-44" value="部门管理" style="shape=umlLifeline;perimeter=lifelinePerimeter;container=1;collapsible=0;recursiveResize=0;rounded=0;shadow=0;strokeWidth=1;" parent="1" vertex="1">
          <mxGeometry x="760" y="40" width="100" height="430" as="geometry" />
        </mxCell>
        <mxCell id="JhATvFRGc8RiKFNdU_sc-45" value="" style="points=[];perimeter=orthogonalPerimeter;rounded=0;shadow=0;strokeWidth=1;" parent="JhATvFRGc8RiKFNdU_sc-44" vertex="1">
          <mxGeometry x="45" y="100" width="10" height="30" as="geometry" />
        </mxCell>
        <mxCell id="JhATvFRGc8RiKFNdU_sc-50" value="3、部门信息校验" style="verticalAlign=bottom;endArrow=block;entryX=0;entryY=0;shadow=0;strokeWidth=1;rounded=0;" parent="JhATvFRGc8RiKFNdU_sc-44" edge="1">
          <mxGeometry relative="1" as="geometry">
            <mxPoint x="-125" y="100.00000000000011" as="sourcePoint" />
            <mxPoint x="45" y="100.00000000000011" as="targetPoint" />
          </mxGeometry>
        </mxCell>
        <mxCell id="JhATvFRGc8RiKFNdU_sc-55" value="6、岗位信息校验" style="verticalAlign=bottom;endArrow=block;shadow=0;strokeWidth=1;rounded=0;" parent="JhATvFRGc8RiKFNdU_sc-44" target="JhATvFRGc8RiKFNdU_sc-46" edge="1">
          <mxGeometry relative="1" as="geometry">
            <mxPoint x="-125" y="200.0000000000001" as="sourcePoint" />
            <mxPoint x="45" y="200.0000000000001" as="targetPoint" />
          </mxGeometry>
        </mxCell>
        <mxCell id="JhATvFRGc8RiKFNdU_sc-46" value="岗位管理" style="shape=umlLifeline;perimeter=lifelinePerimeter;container=1;collapsible=0;recursiveResize=0;rounded=0;shadow=0;strokeWidth=1;" parent="1" vertex="1">
          <mxGeometry x="940" y="40" width="100" height="430" as="geometry" />
        </mxCell>
        <mxCell id="JhATvFRGc8RiKFNdU_sc-47" value="" style="points=[];perimeter=orthogonalPerimeter;rounded=0;shadow=0;strokeWidth=1;" parent="JhATvFRGc8RiKFNdU_sc-46" vertex="1">
          <mxGeometry x="45" y="200" width="10" height="30" as="geometry" />
        </mxCell>
        <mxCell id="JhATvFRGc8RiKFNdU_sc-48" value="角色管理" style="shape=umlLifeline;perimeter=lifelinePerimeter;container=1;collapsible=0;recursiveResize=0;rounded=0;shadow=0;strokeWidth=1;" parent="1" vertex="1">
          <mxGeometry x="1130" y="40" width="100" height="430" as="geometry" />
        </mxCell>
        <mxCell id="JhATvFRGc8RiKFNdU_sc-49" value="" style="points=[];perimeter=orthogonalPerimeter;rounded=0;shadow=0;strokeWidth=1;" parent="JhATvFRGc8RiKFNdU_sc-48" vertex="1">
          <mxGeometry x="45" y="310" width="10" height="30" as="geometry" />
        </mxCell>
        <mxCell id="JhATvFRGc8RiKFNdU_sc-51" value="4、return" style="verticalAlign=bottom;endArrow=open;dashed=1;endSize=8;exitX=0;exitY=0.95;shadow=0;strokeWidth=1;rounded=0;" parent="1" edge="1">
          <mxGeometry relative="1" as="geometry">
            <mxPoint x="635" y="169.99999999999977" as="targetPoint" />
            <mxPoint x="805" y="169.99999999999977" as="sourcePoint" />
          </mxGeometry>
        </mxCell>
        <mxCell id="JhATvFRGc8RiKFNdU_sc-56" value="7、return" style="verticalAlign=bottom;endArrow=open;dashed=1;endSize=8;exitX=0;exitY=0.95;shadow=0;strokeWidth=1;rounded=0;" parent="1" edge="1">
          <mxGeometry relative="1" as="geometry">
            <mxPoint x="640" y="270" as="targetPoint" />
            <mxPoint x="990" y="269.4999999999998" as="sourcePoint" />
          </mxGeometry>
        </mxCell>
        <mxCell id="JhATvFRGc8RiKFNdU_sc-57" value="" style="points=[];perimeter=orthogonalPerimeter;rounded=0;shadow=0;strokeWidth=1;" parent="1" vertex="1">
          <mxGeometry x="628" y="283" width="10" height="30" as="geometry" />
        </mxCell>
        <mxCell id="JhATvFRGc8RiKFNdU_sc-58" value="8、人员岗位关系新增" style="edgeStyle=orthogonalEdgeStyle;html=1;align=left;spacingLeft=2;endArrow=block;rounded=0;entryX=1;entryY=0;fontSize=14;" parent="1" edge="1">
          <mxGeometry relative="1" as="geometry">
            <mxPoint x="638" y="283" as="sourcePoint" />
            <Array as="points">
              <mxPoint x="668" y="283" />
            </Array>
            <mxPoint x="643" y="303" as="targetPoint" />
          </mxGeometry>
        </mxCell>
        <mxCell id="JhATvFRGc8RiKFNdU_sc-60" value="11、return" style="verticalAlign=bottom;endArrow=open;dashed=1;endSize=8;exitX=0;exitY=0.95;shadow=0;strokeWidth=1;rounded=0;" parent="1" edge="1">
          <mxGeometry relative="1" as="geometry">
            <mxPoint x="457" y="379" as="targetPoint" />
            <mxPoint x="1177" y="379.4999999999998" as="sourcePoint" />
          </mxGeometry>
        </mxCell>
        <mxCell id="JhATvFRGc8RiKFNdU_sc-63" value="13、return" style="html=1;verticalAlign=bottom;endArrow=open;dashed=1;endSize=8;rounded=0;fontSize=14;" parent="1" edge="1">
          <mxGeometry relative="1" as="geometry">
            <mxPoint x="450" y="430" as="sourcePoint" />
            <mxPoint x="370" y="430" as="targetPoint" />
          </mxGeometry>
        </mxCell>
        <mxCell id="JhATvFRGc8RiKFNdU_sc-64" value="" style="rounded=0;whiteSpace=wrap;html=1;fontSize=14;" parent="1" vertex="1">
          <mxGeometry x="100" y="680" width="870" height="1020" as="geometry" />
        </mxCell>
        <mxCell id="JhATvFRGc8RiKFNdU_sc-65" value="" style="rounded=0;whiteSpace=wrap;html=1;fontSize=14;strokeColor=#66B2FF;" parent="1" vertex="1">
          <mxGeometry x="300" y="740" width="460" height="100" as="geometry" />
        </mxCell>
        <mxCell id="JhATvFRGc8RiKFNdU_sc-66" value="&lt;font style=&quot;font-size: 18px&quot;&gt;应用层&lt;/font&gt;" style="rounded=0;whiteSpace=wrap;html=1;fontSize=14;strokeColor=none;" parent="1" vertex="1">
          <mxGeometry x="160" y="760" width="120" height="60" as="geometry" />
        </mxCell>
        <mxCell id="JhATvFRGc8RiKFNdU_sc-67" value="Web" style="rounded=0;whiteSpace=wrap;html=1;fontSize=14;strokeColor=#d6b656;fillColor=#fff2cc;" parent="1" vertex="1">
          <mxGeometry x="370" y="760" width="120" height="60" as="geometry" />
        </mxCell>
        <mxCell id="JhATvFRGc8RiKFNdU_sc-68" value="App" style="rounded=0;whiteSpace=wrap;html=1;fontSize=14;strokeColor=#d6b656;fillColor=#fff2cc;" parent="1" vertex="1">
          <mxGeometry x="580" y="760" width="120" height="60" as="geometry" />
        </mxCell>
        <mxCell id="JhATvFRGc8RiKFNdU_sc-69" value="" style="rounded=0;whiteSpace=wrap;html=1;fontSize=14;strokeColor=#66B2FF;" parent="1" vertex="1">
          <mxGeometry x="300" y="870" width="460" height="100" as="geometry" />
        </mxCell>
        <mxCell id="JhATvFRGc8RiKFNdU_sc-70" value="&lt;font style=&quot;font-size: 18px&quot;&gt;控制层&lt;/font&gt;" style="rounded=0;whiteSpace=wrap;html=1;fontSize=14;strokeColor=none;" parent="1" vertex="1">
          <mxGeometry x="160" y="890" width="120" height="60" as="geometry" />
        </mxCell>
        <mxCell id="JhATvFRGc8RiKFNdU_sc-71" value="注册中心" style="rounded=0;whiteSpace=wrap;html=1;fontSize=14;strokeColor=#d6b656;fillColor=#fff2cc;" parent="1" vertex="1">
          <mxGeometry x="327" y="890" width="120" height="60" as="geometry" />
        </mxCell>
        <mxCell id="JhATvFRGc8RiKFNdU_sc-72" value="服务网关" style="rounded=0;whiteSpace=wrap;html=1;fontSize=14;strokeColor=#d6b656;fillColor=#fff2cc;" parent="1" vertex="1">
          <mxGeometry x="472" y="890" width="120" height="60" as="geometry" />
        </mxCell>
        <mxCell id="JhATvFRGc8RiKFNdU_sc-73" value="鉴权服务" style="rounded=0;whiteSpace=wrap;html=1;fontSize=14;strokeColor=#d6b656;fillColor=#fff2cc;" parent="1" vertex="1">
          <mxGeometry x="617" y="890" width="120" height="60" as="geometry" />
        </mxCell>
        <mxCell id="JhATvFRGc8RiKFNdU_sc-74" value="" style="rounded=0;whiteSpace=wrap;html=1;fontSize=14;strokeColor=#66B2FF;" parent="1" vertex="1">
          <mxGeometry x="300" y="1000" width="460" height="310" as="geometry" />
        </mxCell>
        <mxCell id="JhATvFRGc8RiKFNdU_sc-75" value="&lt;font style=&quot;font-size: 18px&quot;&gt;应用层&lt;/font&gt;" style="rounded=0;whiteSpace=wrap;html=1;fontSize=14;strokeColor=none;" parent="1" vertex="1">
          <mxGeometry x="160" y="1130" width="120" height="60" as="geometry" />
        </mxCell>
        <mxCell id="JhATvFRGc8RiKFNdU_sc-76" value="项目管理模块" style="rounded=0;whiteSpace=wrap;html=1;fontSize=14;strokeColor=#d6b656;fillColor=#fff2cc;" parent="1" vertex="1">
          <mxGeometry x="325" y="1088" width="120" height="60" as="geometry" />
        </mxCell>
        <mxCell id="JhATvFRGc8RiKFNdU_sc-77" value="销售管理模块" style="rounded=0;whiteSpace=wrap;html=1;fontSize=14;strokeColor=#d6b656;fillColor=#fff2cc;" parent="1" vertex="1">
          <mxGeometry x="470" y="1088" width="120" height="60" as="geometry" />
        </mxCell>
        <mxCell id="JhATvFRGc8RiKFNdU_sc-78" value="采购管理模块" style="rounded=0;whiteSpace=wrap;html=1;fontSize=14;strokeColor=#d6b656;fillColor=#fff2cc;" parent="1" vertex="1">
          <mxGeometry x="615" y="1088" width="120" height="60" as="geometry" />
        </mxCell>
        <mxCell id="JhATvFRGc8RiKFNdU_sc-79" value="用户管理模块" style="rounded=0;whiteSpace=wrap;html=1;fontSize=14;strokeColor=#d6b656;fillColor=#fff2cc;" parent="1" vertex="1">
          <mxGeometry x="327" y="1228" width="193" height="60" as="geometry" />
        </mxCell>
        <mxCell id="JhATvFRGc8RiKFNdU_sc-80" value="基础数据" style="rounded=0;whiteSpace=wrap;html=1;fontSize=14;strokeColor=#d6b656;fillColor=#fff2cc;" parent="1" vertex="1">
          <mxGeometry x="542" y="1228" width="193" height="60" as="geometry" />
        </mxCell>
        <mxCell id="JhATvFRGc8RiKFNdU_sc-81" value="供应商管理" style="rounded=0;whiteSpace=wrap;html=1;fontSize=14;strokeColor=#d6b656;fillColor=#fff2cc;" parent="1" vertex="1">
          <mxGeometry x="325" y="1158" width="120" height="60" as="geometry" />
        </mxCell>
        <mxCell id="JhATvFRGc8RiKFNdU_sc-82" value="库存管理模块" style="rounded=0;whiteSpace=wrap;html=1;fontSize=14;strokeColor=#d6b656;fillColor=#fff2cc;" parent="1" vertex="1">
          <mxGeometry x="470" y="1158" width="265" height="60" as="geometry" />
        </mxCell>
        <mxCell id="JhATvFRGc8RiKFNdU_sc-83" value="报表管理" style="rounded=0;whiteSpace=wrap;html=1;fontSize=14;strokeColor=#d6b656;fillColor=#fff2cc;" parent="1" vertex="1">
          <mxGeometry x="323.5" y="1017" width="413" height="60" as="geometry" />
        </mxCell>
        <mxCell id="JhATvFRGc8RiKFNdU_sc-84" value="" style="rounded=0;whiteSpace=wrap;html=1;fontSize=14;strokeColor=#66B2FF;" parent="1" vertex="1">
          <mxGeometry x="300" y="1340" width="460" height="100" as="geometry" />
        </mxCell>
        <mxCell id="JhATvFRGc8RiKFNdU_sc-85" value="&lt;font style=&quot;font-size: 18px&quot;&gt;数据层&lt;/font&gt;" style="rounded=0;whiteSpace=wrap;html=1;fontSize=14;strokeColor=none;" parent="1" vertex="1">
          <mxGeometry x="160" y="1360" width="120" height="60" as="geometry" />
        </mxCell>
        <mxCell id="JhATvFRGc8RiKFNdU_sc-86" value="mariaDB" style="rounded=0;whiteSpace=wrap;html=1;fontSize=14;strokeColor=#d6b656;fillColor=#fff2cc;" parent="1" vertex="1">
          <mxGeometry x="380" y="1360" width="120" height="60" as="geometry" />
        </mxCell>
        <mxCell id="JhATvFRGc8RiKFNdU_sc-87" value="redis" style="rounded=0;whiteSpace=wrap;html=1;fontSize=14;strokeColor=#d6b656;fillColor=#fff2cc;" parent="1" vertex="1">
          <mxGeometry x="570" y="1360" width="120" height="60" as="geometry" />
        </mxCell>
        <mxCell id="JhATvFRGc8RiKFNdU_sc-89" value="用户管理" style="shape=umlLifeline;perimeter=lifelinePerimeter;container=1;collapsible=0;recursiveResize=0;rounded=0;shadow=0;strokeWidth=1;" parent="1" vertex="1">
          <mxGeometry x="1440" y="50" width="100" height="670" as="geometry" />
        </mxCell>
        <mxCell id="JhATvFRGc8RiKFNdU_sc-90" value="" style="points=[];perimeter=orthogonalPerimeter;rounded=0;shadow=0;strokeWidth=1;" parent="JhATvFRGc8RiKFNdU_sc-89" vertex="1">
          <mxGeometry x="45" y="70" width="10" height="580" as="geometry" />
        </mxCell>
        <mxCell id="JhATvFRGc8RiKFNdU_sc-91" value="" style="points=[];perimeter=orthogonalPerimeter;rounded=0;shadow=0;strokeWidth=1;" parent="JhATvFRGc8RiKFNdU_sc-89" vertex="1">
          <mxGeometry x="50" y="470" width="10" height="30" as="geometry" />
        </mxCell>
        <mxCell id="JhATvFRGc8RiKFNdU_sc-92" value="14、用户角色关系过滤" style="edgeStyle=orthogonalEdgeStyle;html=1;align=left;spacingLeft=2;endArrow=block;rounded=0;entryX=1;entryY=0;fontSize=14;" parent="JhATvFRGc8RiKFNdU_sc-89" edge="1">
          <mxGeometry relative="1" as="geometry">
            <mxPoint x="60" y="470" as="sourcePoint" />
            <Array as="points">
              <mxPoint x="90" y="470" />
            </Array>
            <mxPoint x="65" y="490" as="targetPoint" />
          </mxGeometry>
        </mxCell>
        <mxCell id="JhATvFRGc8RiKFNdU_sc-132" value="" style="points=[];perimeter=orthogonalPerimeter;rounded=0;shadow=0;strokeWidth=1;" parent="JhATvFRGc8RiKFNdU_sc-89" vertex="1">
          <mxGeometry x="50" y="570" width="10" height="30" as="geometry" />
        </mxCell>
        <mxCell id="JhATvFRGc8RiKFNdU_sc-93" value="人员管理" style="shape=umlLifeline;perimeter=lifelinePerimeter;container=1;collapsible=0;recursiveResize=0;rounded=0;shadow=0;strokeWidth=1;" parent="1" vertex="1">
          <mxGeometry x="1620" y="50" width="100" height="670" as="geometry" />
        </mxCell>
        <mxCell id="JhATvFRGc8RiKFNdU_sc-94" value="" style="points=[];perimeter=orthogonalPerimeter;rounded=0;shadow=0;strokeWidth=1;" parent="JhATvFRGc8RiKFNdU_sc-93" vertex="1">
          <mxGeometry x="45" y="80" width="10" height="370" as="geometry" />
        </mxCell>
        <mxCell id="JhATvFRGc8RiKFNdU_sc-95" value="" style="points=[];perimeter=orthogonalPerimeter;rounded=0;shadow=0;strokeWidth=1;" parent="JhATvFRGc8RiKFNdU_sc-93" vertex="1">
          <mxGeometry x="50" y="93" width="10" height="30" as="geometry" />
        </mxCell>
        <mxCell id="JhATvFRGc8RiKFNdU_sc-96" value="3、人员部门关系过滤" style="edgeStyle=orthogonalEdgeStyle;html=1;align=left;spacingLeft=2;endArrow=block;rounded=0;entryX=1;entryY=0;fontSize=14;" parent="JhATvFRGc8RiKFNdU_sc-93" edge="1">
          <mxGeometry relative="1" as="geometry">
            <mxPoint x="60" y="93" as="sourcePoint" />
            <Array as="points">
              <mxPoint x="90" y="93" />
            </Array>
            <mxPoint x="65" y="113" as="targetPoint" />
          </mxGeometry>
        </mxCell>
        <mxCell id="JhATvFRGc8RiKFNdU_sc-122" value="" style="points=[];perimeter=orthogonalPerimeter;rounded=0;shadow=0;strokeWidth=1;" parent="JhATvFRGc8RiKFNdU_sc-93" vertex="1">
          <mxGeometry x="50" y="270" width="10" height="30" as="geometry" />
        </mxCell>
        <mxCell id="JhATvFRGc8RiKFNdU_sc-123" value="8、人员岗位关系过滤" style="edgeStyle=orthogonalEdgeStyle;html=1;align=left;spacingLeft=2;endArrow=block;rounded=0;entryX=1;entryY=0;fontSize=14;" parent="JhATvFRGc8RiKFNdU_sc-93" edge="1">
          <mxGeometry relative="1" as="geometry">
            <mxPoint x="60" y="270" as="sourcePoint" />
            <Array as="points">
              <mxPoint x="90" y="270" />
            </Array>
            <mxPoint x="65" y="290" as="targetPoint" />
          </mxGeometry>
        </mxCell>
        <mxCell id="JhATvFRGc8RiKFNdU_sc-126" value="" style="points=[];perimeter=orthogonalPerimeter;rounded=0;shadow=0;strokeWidth=1;" parent="JhATvFRGc8RiKFNdU_sc-93" vertex="1">
          <mxGeometry x="50" y="350" width="10" height="30" as="geometry" />
        </mxCell>
        <mxCell id="JhATvFRGc8RiKFNdU_sc-127" value="11、人员岗位关系删除" style="edgeStyle=orthogonalEdgeStyle;html=1;align=left;spacingLeft=2;endArrow=block;rounded=0;entryX=1;entryY=0;fontSize=14;" parent="JhATvFRGc8RiKFNdU_sc-93" edge="1">
          <mxGeometry relative="1" as="geometry">
            <mxPoint x="60" y="350" as="sourcePoint" />
            <Array as="points">
              <mxPoint x="90" y="350" />
            </Array>
            <mxPoint x="65" y="370" as="targetPoint" />
          </mxGeometry>
        </mxCell>
        <mxCell id="JhATvFRGc8RiKFNdU_sc-128" value="" style="points=[];perimeter=orthogonalPerimeter;rounded=0;shadow=0;strokeWidth=1;" parent="JhATvFRGc8RiKFNdU_sc-93" vertex="1">
          <mxGeometry x="50" y="390" width="10" height="30" as="geometry" />
        </mxCell>
        <mxCell id="JhATvFRGc8RiKFNdU_sc-129" value="12、人员岗位关系新增" style="edgeStyle=orthogonalEdgeStyle;html=1;align=left;spacingLeft=2;endArrow=block;rounded=0;entryX=1;entryY=0;fontSize=14;" parent="JhATvFRGc8RiKFNdU_sc-93" edge="1">
          <mxGeometry relative="1" as="geometry">
            <mxPoint x="60" y="390" as="sourcePoint" />
            <Array as="points">
              <mxPoint x="90" y="390" />
            </Array>
            <mxPoint x="65" y="410" as="targetPoint" />
          </mxGeometry>
        </mxCell>
        <mxCell id="JhATvFRGc8RiKFNdU_sc-98" value="13、return" style="verticalAlign=bottom;endArrow=open;dashed=1;endSize=8;exitX=0;exitY=0.95;shadow=0;strokeWidth=1;rounded=0;" parent="1" edge="1">
          <mxGeometry relative="1" as="geometry">
            <mxPoint x="1495" y="499.9999999999998" as="targetPoint" />
            <mxPoint x="1665" y="499.9999999999998" as="sourcePoint" />
          </mxGeometry>
        </mxCell>
        <mxCell id="JhATvFRGc8RiKFNdU_sc-99" value="2、人员编辑" style="verticalAlign=bottom;endArrow=block;entryX=0;entryY=0;shadow=0;strokeWidth=1;rounded=0;" parent="1" source="JhATvFRGc8RiKFNdU_sc-90" target="JhATvFRGc8RiKFNdU_sc-94" edge="1">
          <mxGeometry relative="1" as="geometry">
            <mxPoint x="1595" y="130" as="sourcePoint" />
          </mxGeometry>
        </mxCell>
        <mxCell id="JhATvFRGc8RiKFNdU_sc-100" value="1、编辑请求" style="html=1;verticalAlign=bottom;startArrow=oval;startFill=1;endArrow=block;startSize=8;rounded=0;fontSize=14;" parent="1" edge="1">
          <mxGeometry width="60" relative="1" as="geometry">
            <mxPoint x="1425" y="121" as="sourcePoint" />
            <mxPoint x="1485" y="121" as="targetPoint" />
          </mxGeometry>
        </mxCell>
        <mxCell id="JhATvFRGc8RiKFNdU_sc-101" value="部门管理" style="shape=umlLifeline;perimeter=lifelinePerimeter;container=1;collapsible=0;recursiveResize=0;rounded=0;shadow=0;strokeWidth=1;" parent="1" vertex="1">
          <mxGeometry x="1800" y="50" width="100" height="772" as="geometry" />
        </mxCell>
        <mxCell id="JhATvFRGc8RiKFNdU_sc-102" value="" style="points=[];perimeter=orthogonalPerimeter;rounded=0;shadow=0;strokeWidth=1;" parent="JhATvFRGc8RiKFNdU_sc-101" vertex="1">
          <mxGeometry x="45" y="140" width="10" height="30" as="geometry" />
        </mxCell>
        <mxCell id="JhATvFRGc8RiKFNdU_sc-105" value="岗位管理" style="shape=umlLifeline;perimeter=lifelinePerimeter;container=1;collapsible=0;recursiveResize=0;rounded=0;shadow=0;strokeWidth=1;" parent="1" vertex="1">
          <mxGeometry x="1980" y="50" width="100" height="670" as="geometry" />
        </mxCell>
        <mxCell id="JhATvFRGc8RiKFNdU_sc-106" value="" style="points=[];perimeter=orthogonalPerimeter;rounded=0;shadow=0;strokeWidth=1;" parent="JhATvFRGc8RiKFNdU_sc-105" vertex="1">
          <mxGeometry x="45" y="310" width="10" height="30" as="geometry" />
        </mxCell>
        <mxCell id="JhATvFRGc8RiKFNdU_sc-125" value="10、return" style="verticalAlign=bottom;endArrow=open;dashed=1;endSize=8;exitX=0.3;exitY=1.033;shadow=0;strokeWidth=1;rounded=0;exitDx=0;exitDy=0;exitPerimeter=0;" parent="JhATvFRGc8RiKFNdU_sc-105" source="JhATvFRGc8RiKFNdU_sc-106" edge="1">
          <mxGeometry relative="1" as="geometry">
            <mxPoint x="-305" y="340" as="targetPoint" />
            <mxPoint x="40" y="340.14" as="sourcePoint" />
          </mxGeometry>
        </mxCell>
        <mxCell id="JhATvFRGc8RiKFNdU_sc-107" value="角色管理" style="shape=umlLifeline;perimeter=lifelinePerimeter;container=1;collapsible=0;recursiveResize=0;rounded=0;shadow=0;strokeWidth=1;" parent="1" vertex="1">
          <mxGeometry x="2170" y="50" width="100" height="670" as="geometry" />
        </mxCell>
        <mxCell id="JhATvFRGc8RiKFNdU_sc-108" value="" style="points=[];perimeter=orthogonalPerimeter;rounded=0;shadow=0;strokeWidth=1;" parent="JhATvFRGc8RiKFNdU_sc-107" vertex="1">
          <mxGeometry x="45" y="520" width="10" height="30" as="geometry" />
        </mxCell>
        <mxCell id="JhATvFRGc8RiKFNdU_sc-114" value="19、return" style="html=1;verticalAlign=bottom;endArrow=open;dashed=1;endSize=8;rounded=0;fontSize=14;" parent="1" edge="1">
          <mxGeometry relative="1" as="geometry">
            <mxPoint x="1490" y="700" as="sourcePoint" />
            <mxPoint x="1410" y="700" as="targetPoint" />
          </mxGeometry>
        </mxCell>
        <mxCell id="JhATvFRGc8RiKFNdU_sc-115" value="17、用户角色关系删除" style="edgeStyle=orthogonalEdgeStyle;html=1;align=left;spacingLeft=2;endArrow=block;rounded=0;entryX=1;entryY=0;fontSize=14;" parent="1" edge="1">
          <mxGeometry relative="1" as="geometry">
            <mxPoint x="1494.9999999999995" y="620" as="sourcePoint" />
            <Array as="points">
              <mxPoint x="1525" y="620" />
            </Array>
            <mxPoint x="1499.9999999999995" y="640" as="targetPoint" />
          </mxGeometry>
        </mxCell>
        <mxCell id="JhATvFRGc8RiKFNdU_sc-116" value="4、人员部门信息校验" style="verticalAlign=bottom;endArrow=block;shadow=0;strokeWidth=1;rounded=0;" parent="1" edge="1">
          <mxGeometry relative="1" as="geometry">
            <mxPoint x="1676" y="190" as="sourcePoint" />
            <mxPoint x="1850" y="190" as="targetPoint" />
          </mxGeometry>
        </mxCell>
        <mxCell id="JhATvFRGc8RiKFNdU_sc-117" value="5、return" style="verticalAlign=bottom;endArrow=open;dashed=1;endSize=8;exitX=0.5;exitY=0.398;shadow=0;strokeWidth=1;rounded=0;exitDx=0;exitDy=0;exitPerimeter=0;" parent="1" edge="1">
          <mxGeometry relative="1" as="geometry">
            <mxPoint x="1676" y="220" as="targetPoint" />
            <mxPoint x="1846" y="220.14" as="sourcePoint" />
          </mxGeometry>
        </mxCell>
        <mxCell id="JhATvFRGc8RiKFNdU_sc-118" value="" style="points=[];perimeter=orthogonalPerimeter;rounded=0;shadow=0;strokeWidth=1;" parent="1" vertex="1">
          <mxGeometry x="1671" y="232" width="10" height="30" as="geometry" />
        </mxCell>
        <mxCell id="JhATvFRGc8RiKFNdU_sc-119" value="6、人员部门关系删除" style="edgeStyle=orthogonalEdgeStyle;html=1;align=left;spacingLeft=2;endArrow=block;rounded=0;entryX=1;entryY=0;fontSize=14;" parent="1" edge="1">
          <mxGeometry relative="1" as="geometry">
            <mxPoint x="1681" y="232" as="sourcePoint" />
            <Array as="points">
              <mxPoint x="1711" y="232" />
            </Array>
            <mxPoint x="1686" y="252" as="targetPoint" />
          </mxGeometry>
        </mxCell>
        <mxCell id="JhATvFRGc8RiKFNdU_sc-120" value="" style="points=[];perimeter=orthogonalPerimeter;rounded=0;shadow=0;strokeWidth=1;" parent="1" vertex="1">
          <mxGeometry x="1670" y="267" width="10" height="30" as="geometry" />
        </mxCell>
        <mxCell id="JhATvFRGc8RiKFNdU_sc-121" value="7、人员部门关系新增" style="edgeStyle=orthogonalEdgeStyle;html=1;align=left;spacingLeft=2;endArrow=block;rounded=0;entryX=1;entryY=0;fontSize=14;" parent="1" edge="1">
          <mxGeometry relative="1" as="geometry">
            <mxPoint x="1680" y="267" as="sourcePoint" />
            <Array as="points">
              <mxPoint x="1710" y="267" />
            </Array>
            <mxPoint x="1685" y="287" as="targetPoint" />
          </mxGeometry>
        </mxCell>
        <mxCell id="JhATvFRGc8RiKFNdU_sc-124" value="9、人员岗位信息校验" style="verticalAlign=bottom;endArrow=block;shadow=0;strokeWidth=1;rounded=0;" parent="1" edge="1">
          <mxGeometry relative="1" as="geometry">
            <mxPoint x="1674.5" y="360" as="sourcePoint" />
            <mxPoint x="2029" y="360" as="targetPoint" />
          </mxGeometry>
        </mxCell>
        <mxCell id="JhATvFRGc8RiKFNdU_sc-130" value="15、用户角色信息校验" style="verticalAlign=bottom;endArrow=block;shadow=0;strokeWidth=1;rounded=0;" parent="1" target="JhATvFRGc8RiKFNdU_sc-107" edge="1">
          <mxGeometry relative="1" as="geometry">
            <mxPoint x="1492.75" y="570" as="sourcePoint" />
            <mxPoint x="1847.25" y="570" as="targetPoint" />
          </mxGeometry>
        </mxCell>
        <mxCell id="JhATvFRGc8RiKFNdU_sc-131" value="16、return" style="verticalAlign=bottom;endArrow=open;dashed=1;endSize=8;exitX=0.3;exitY=1.033;shadow=0;strokeWidth=1;rounded=0;exitDx=0;exitDy=0;exitPerimeter=0;" parent="1" edge="1">
          <mxGeometry relative="1" as="geometry">
            <mxPoint x="1493.5" y="600.99" as="targetPoint" />
            <mxPoint x="2220.5" y="600.99" as="sourcePoint" />
          </mxGeometry>
        </mxCell>
        <mxCell id="JhATvFRGc8RiKFNdU_sc-133" value="" style="points=[];perimeter=orthogonalPerimeter;rounded=0;shadow=0;strokeWidth=1;" parent="1" vertex="1">
          <mxGeometry x="1490" y="657" width="10" height="30" as="geometry" />
        </mxCell>
        <mxCell id="JhATvFRGc8RiKFNdU_sc-134" value="18、用户角色关系新增" style="edgeStyle=orthogonalEdgeStyle;html=1;align=left;spacingLeft=2;endArrow=block;rounded=0;entryX=1;entryY=0;fontSize=14;" parent="1" edge="1">
          <mxGeometry relative="1" as="geometry">
            <mxPoint x="1500" y="657" as="sourcePoint" />
            <Array as="points">
              <mxPoint x="1530" y="657" />
            </Array>
            <mxPoint x="1505" y="677" as="targetPoint" />
          </mxGeometry>
        </mxCell>
        <mxCell id="JhATvFRGc8RiKFNdU_sc-147" value="" style="rounded=0;whiteSpace=wrap;html=1;fontSize=18;strokeColor=#d79b00;fillColor=#ffe6cc;" parent="1" vertex="1">
          <mxGeometry x="1230" y="1110" width="280" height="460" as="geometry" />
        </mxCell>
        <mxCell id="JhATvFRGc8RiKFNdU_sc-146" value="销售管理" style="rounded=0;whiteSpace=wrap;html=1;fontSize=18;strokeColor=#6c8ebf;fillColor=#dae8fc;" parent="1" vertex="1">
          <mxGeometry x="1230" y="1110" width="280" height="62" as="geometry" />
        </mxCell>
        <mxCell id="JhATvFRGc8RiKFNdU_sc-135" value="机会点" style="shape=umlLifeline;perimeter=lifelinePerimeter;container=1;collapsible=0;recursiveResize=0;rounded=0;shadow=0;strokeWidth=1;" parent="1" vertex="1">
          <mxGeometry x="1247.5" y="1210" width="100" height="300" as="geometry" />
        </mxCell>
        <mxCell id="JhATvFRGc8RiKFNdU_sc-136" value="" style="points=[];perimeter=orthogonalPerimeter;rounded=0;shadow=0;strokeWidth=1;" parent="JhATvFRGc8RiKFNdU_sc-135" vertex="1">
          <mxGeometry x="45" y="70" width="10" height="190" as="geometry" />
        </mxCell>
        <mxCell id="JhATvFRGc8RiKFNdU_sc-137" value="1、机会点查询" style="verticalAlign=bottom;startArrow=oval;endArrow=block;startSize=8;shadow=0;strokeWidth=1;rounded=0;" parent="JhATvFRGc8RiKFNdU_sc-135" target="JhATvFRGc8RiKFNdU_sc-136" edge="1">
          <mxGeometry relative="1" as="geometry">
            <mxPoint x="-54" y="70" as="sourcePoint" />
            <mxPoint x="6" y="70" as="targetPoint" />
          </mxGeometry>
        </mxCell>
        <mxCell id="JhATvFRGc8RiKFNdU_sc-139" value="客户" style="shape=umlLifeline;perimeter=lifelinePerimeter;container=1;collapsible=0;recursiveResize=0;rounded=0;shadow=0;strokeWidth=1;" parent="1" vertex="1">
          <mxGeometry x="1392.5" y="1210" width="100" height="300" as="geometry" />
        </mxCell>
        <mxCell id="JhATvFRGc8RiKFNdU_sc-140" value="" style="points=[];perimeter=orthogonalPerimeter;rounded=0;shadow=0;strokeWidth=1;" parent="JhATvFRGc8RiKFNdU_sc-139" vertex="1">
          <mxGeometry x="45" y="80" width="10" height="40" as="geometry" />
        </mxCell>
        <mxCell id="JhATvFRGc8RiKFNdU_sc-141" value="3、return" style="verticalAlign=bottom;endArrow=open;dashed=1;endSize=8;exitX=0;exitY=0.95;shadow=0;strokeWidth=1;rounded=0;" parent="1" edge="1">
          <mxGeometry relative="1" as="geometry">
            <mxPoint x="1302.5" y="1330" as="targetPoint" />
            <mxPoint x="1437.5" y="1330" as="sourcePoint" />
          </mxGeometry>
        </mxCell>
        <mxCell id="JhATvFRGc8RiKFNdU_sc-142" value="2、查询机会点客户" style="verticalAlign=bottom;endArrow=block;entryX=0;entryY=0;shadow=0;strokeWidth=1;rounded=0;" parent="1" source="JhATvFRGc8RiKFNdU_sc-136" target="JhATvFRGc8RiKFNdU_sc-140" edge="1">
          <mxGeometry relative="1" as="geometry">
            <mxPoint x="1407.5" y="1290" as="sourcePoint" />
          </mxGeometry>
        </mxCell>
        <mxCell id="JhATvFRGc8RiKFNdU_sc-151" value="" style="rounded=0;whiteSpace=wrap;html=1;fontSize=18;strokeColor=#d79b00;fillColor=#ffe6cc;" parent="1" vertex="1">
          <mxGeometry x="1510" y="1110" width="280" height="460" as="geometry" />
        </mxCell>
        <mxCell id="JhATvFRGc8RiKFNdU_sc-149" value="用户管理模块" style="rounded=0;whiteSpace=wrap;html=1;fontSize=18;strokeColor=#6c8ebf;fillColor=#dae8fc;" parent="1" vertex="1">
          <mxGeometry x="1511" y="1110" width="279" height="62" as="geometry" />
        </mxCell>
        <mxCell id="QqDQ2wGyLcQJu00NtUJg-1" value="用户管理" style="shape=umlLifeline;perimeter=lifelinePerimeter;container=1;collapsible=0;recursiveResize=0;rounded=0;shadow=0;strokeWidth=1;" parent="1" vertex="1">
          <mxGeometry x="1554" y="1210" width="100" height="300" as="geometry" />
        </mxCell>
        <mxCell id="QqDQ2wGyLcQJu00NtUJg-2" value="" style="points=[];perimeter=orthogonalPerimeter;rounded=0;shadow=0;strokeWidth=1;" parent="QqDQ2wGyLcQJu00NtUJg-1" vertex="1">
          <mxGeometry x="45" y="145" width="10" height="75" as="geometry" />
        </mxCell>
        <mxCell id="QqDQ2wGyLcQJu00NtUJg-3" value="4、查询机会点成员" style="verticalAlign=bottom;endArrow=block;shadow=0;strokeWidth=1;rounded=0;" parent="1" target="QqDQ2wGyLcQJu00NtUJg-2" edge="1">
          <mxGeometry relative="1" as="geometry">
            <mxPoint x="1303.5" y="1354" as="sourcePoint" />
            <mxPoint x="1438.5" y="1354" as="targetPoint" />
          </mxGeometry>
        </mxCell>
        <mxCell id="QqDQ2wGyLcQJu00NtUJg-4" value="7、return" style="verticalAlign=bottom;endArrow=open;dashed=1;endSize=8;exitX=0;exitY=0.95;shadow=0;strokeWidth=1;rounded=0;entryX=0.95;entryY=0.605;entryDx=0;entryDy=0;entryPerimeter=0;" parent="1" edge="1">
          <mxGeometry relative="1" as="geometry">
            <mxPoint x="1302" y="1429.9499999999998" as="targetPoint" />
            <mxPoint x="1603" y="1430" as="sourcePoint" />
          </mxGeometry>
        </mxCell>
        <mxCell id="QqDQ2wGyLcQJu00NtUJg-5" value="8、return" style="html=1;verticalAlign=bottom;endArrow=open;dashed=1;endSize=8;rounded=0;exitX=0.45;exitY=1.005;exitDx=0;exitDy=0;exitPerimeter=0;" parent="1" source="JhATvFRGc8RiKFNdU_sc-136" edge="1">
          <mxGeometry relative="1" as="geometry">
            <mxPoint x="1274" y="1470" as="sourcePoint" />
            <mxPoint x="1194" y="1470" as="targetPoint" />
          </mxGeometry>
        </mxCell>
        <mxCell id="QqDQ2wGyLcQJu00NtUJg-11" value="人员管理" style="shape=umlLifeline;perimeter=lifelinePerimeter;container=1;collapsible=0;recursiveResize=0;rounded=0;shadow=0;strokeWidth=1;" parent="1" vertex="1">
          <mxGeometry x="2370" y="2410" width="100" height="310" as="geometry" />
        </mxCell>
        <mxCell id="QqDQ2wGyLcQJu00NtUJg-25" value="岗位管理" style="shape=umlLifeline;perimeter=lifelinePerimeter;container=1;collapsible=0;recursiveResize=0;rounded=0;shadow=0;strokeWidth=1;" parent="1" vertex="1">
          <mxGeometry x="2730" y="2410" width="100" height="310" as="geometry" />
        </mxCell>
        <mxCell id="QqDQ2wGyLcQJu00NtUJg-43" value="部门管理" style="shape=umlLifeline;perimeter=lifelinePerimeter;container=1;collapsible=0;recursiveResize=0;rounded=0;shadow=0;strokeWidth=1;" parent="1" vertex="1">
          <mxGeometry x="2560" y="2410" width="100" height="310" as="geometry" />
        </mxCell>
        <mxCell id="QqDQ2wGyLcQJu00NtUJg-55" value="人员管理" style="shape=umlLifeline;perimeter=lifelinePerimeter;container=1;collapsible=0;recursiveResize=0;rounded=0;shadow=0;strokeWidth=1;" parent="1" vertex="1">
          <mxGeometry x="1680" y="1210" width="100" height="300" as="geometry" />
        </mxCell>
        <mxCell id="QqDQ2wGyLcQJu00NtUJg-56" value="" style="points=[];perimeter=orthogonalPerimeter;rounded=0;shadow=0;strokeWidth=1;" parent="QqDQ2wGyLcQJu00NtUJg-55" vertex="1">
          <mxGeometry x="45" y="170" width="10" height="40" as="geometry" />
        </mxCell>
        <mxCell id="QqDQ2wGyLcQJu00NtUJg-57" value="5、查询用户人员信息" style="verticalAlign=bottom;endArrow=block;entryX=0;entryY=0;shadow=0;strokeWidth=1;rounded=0;" parent="QqDQ2wGyLcQJu00NtUJg-55" edge="1">
          <mxGeometry relative="1" as="geometry">
            <mxPoint x="-70" y="170" as="sourcePoint" />
            <mxPoint x="54" y="170" as="targetPoint" />
          </mxGeometry>
        </mxCell>
        <mxCell id="QqDQ2wGyLcQJu00NtUJg-58" value="6、return" style="verticalAlign=bottom;endArrow=open;dashed=1;endSize=8;shadow=0;strokeWidth=1;rounded=0;" parent="QqDQ2wGyLcQJu00NtUJg-55" edge="1">
          <mxGeometry relative="1" as="geometry">
            <mxPoint x="-72" y="210" as="targetPoint" />
            <mxPoint x="50" y="210" as="sourcePoint" />
          </mxGeometry>
        </mxCell>
        <mxCell id="QqDQ2wGyLcQJu00NtUJg-59" value="用户管理" style="shape=umlLifeline;perimeter=lifelinePerimeter;container=1;collapsible=0;recursiveResize=0;rounded=0;shadow=0;strokeWidth=1;" parent="1" vertex="1">
          <mxGeometry x="2103" y="770" width="100" height="333" as="geometry" />
        </mxCell>
        <mxCell id="QqDQ2wGyLcQJu00NtUJg-60" value="" style="points=[];perimeter=orthogonalPerimeter;rounded=0;shadow=0;strokeWidth=1;" parent="QqDQ2wGyLcQJu00NtUJg-59" vertex="1">
          <mxGeometry x="45" y="70" width="10" height="190" as="geometry" />
        </mxCell>
        <mxCell id="QqDQ2wGyLcQJu00NtUJg-64" value="4、return" style="html=1;verticalAlign=bottom;endArrow=open;dashed=1;endSize=8;rounded=0;fontSize=14;" parent="QqDQ2wGyLcQJu00NtUJg-59" edge="1">
          <mxGeometry relative="1" as="geometry">
            <mxPoint x="45" y="260" as="sourcePoint" />
            <mxPoint x="-35" y="260" as="targetPoint" />
          </mxGeometry>
        </mxCell>
        <mxCell id="QqDQ2wGyLcQJu00NtUJg-63" value="1、停用请求" style="html=1;verticalAlign=bottom;startArrow=oval;startFill=1;endArrow=block;startSize=8;rounded=0;fontSize=14;" parent="1" edge="1">
          <mxGeometry width="60" relative="1" as="geometry">
            <mxPoint x="2088" y="841" as="sourcePoint" />
            <mxPoint x="2148" y="841" as="targetPoint" />
          </mxGeometry>
        </mxCell>
        <mxCell id="QqDQ2wGyLcQJu00NtUJg-65" value="人员管理" style="shape=umlLifeline;perimeter=lifelinePerimeter;container=1;collapsible=0;recursiveResize=0;rounded=0;shadow=0;strokeWidth=1;" parent="1" vertex="1">
          <mxGeometry x="2273" y="770" width="100" height="333" as="geometry" />
        </mxCell>
        <mxCell id="QqDQ2wGyLcQJu00NtUJg-66" value="" style="points=[];perimeter=orthogonalPerimeter;rounded=0;shadow=0;strokeWidth=1;" parent="QqDQ2wGyLcQJu00NtUJg-65" vertex="1">
          <mxGeometry x="45" y="130" width="10" height="70" as="geometry" />
        </mxCell>
        <mxCell id="QqDQ2wGyLcQJu00NtUJg-69" value="2、人员停用" style="verticalAlign=bottom;endArrow=block;shadow=0;strokeWidth=1;rounded=0;" parent="QqDQ2wGyLcQJu00NtUJg-65" edge="1">
          <mxGeometry relative="1" as="geometry">
            <mxPoint x="-114" y="130" as="sourcePoint" />
            <mxPoint x="50" y="130" as="targetPoint" />
          </mxGeometry>
        </mxCell>
        <mxCell id="QqDQ2wGyLcQJu00NtUJg-70" value="3、return" style="verticalAlign=bottom;endArrow=open;dashed=1;endSize=8;exitX=0.3;exitY=1.033;shadow=0;strokeWidth=1;rounded=0;exitDx=0;exitDy=0;exitPerimeter=0;" parent="QqDQ2wGyLcQJu00NtUJg-65" edge="1">
          <mxGeometry relative="1" as="geometry">
            <mxPoint x="-117" y="200" as="targetPoint" />
            <mxPoint x="48" y="200" as="sourcePoint" />
          </mxGeometry>
        </mxCell>
        <mxCell id="QqDQ2wGyLcQJu00NtUJg-71" value="Y" style="edgeStyle=orthogonalEdgeStyle;rounded=0;orthogonalLoop=1;jettySize=auto;html=1;fontSize=14;entryX=0.5;entryY=0;entryDx=0;entryDy=0;" parent="1" source="QqDQ2wGyLcQJu00NtUJg-73" target="QqDQ2wGyLcQJu00NtUJg-85" edge="1">
          <mxGeometry relative="1" as="geometry">
            <mxPoint x="220" y="1958" as="targetPoint" />
          </mxGeometry>
        </mxCell>
        <mxCell id="QqDQ2wGyLcQJu00NtUJg-72" value="N" style="edgeStyle=orthogonalEdgeStyle;rounded=0;orthogonalLoop=1;jettySize=auto;html=1;exitX=1;exitY=0.5;exitDx=0;exitDy=0;fontSize=14;endArrow=none;endFill=0;" parent="1" source="QqDQ2wGyLcQJu00NtUJg-73" edge="1">
          <mxGeometry relative="1" as="geometry">
            <mxPoint x="330" y="1878" as="targetPoint" />
          </mxGeometry>
        </mxCell>
        <mxCell id="QqDQ2wGyLcQJu00NtUJg-73" value="信息校验是否有效" style="rhombus;whiteSpace=wrap;html=1;shadow=0;fontFamily=Helvetica;fontSize=12;align=center;strokeWidth=1;spacing=6;spacingTop=-4;" parent="1" vertex="1">
          <mxGeometry x="170" y="1838" width="100" height="80" as="geometry" />
        </mxCell>
        <mxCell id="QqDQ2wGyLcQJu00NtUJg-78" value="" style="edgeStyle=orthogonalEdgeStyle;rounded=0;orthogonalLoop=1;jettySize=auto;html=1;fontSize=14;" parent="1" source="QqDQ2wGyLcQJu00NtUJg-79" edge="1">
          <mxGeometry relative="1" as="geometry">
            <mxPoint x="220" y="2198" as="targetPoint" />
          </mxGeometry>
        </mxCell>
        <mxCell id="QqDQ2wGyLcQJu00NtUJg-79" value="新增角色权限" style="rounded=1;whiteSpace=wrap;html=1;fontSize=12;glass=0;strokeWidth=1;shadow=0;" parent="1" vertex="1">
          <mxGeometry x="160" y="2080" width="120" height="40" as="geometry" />
        </mxCell>
        <mxCell id="QqDQ2wGyLcQJu00NtUJg-80" value="&lt;font style=&quot;font-size: 14px&quot;&gt;结束&lt;/font&gt;" style="strokeWidth=2;html=1;shape=mxgraph.flowchart.terminator;whiteSpace=wrap;fillColor=#ffe6cc;strokeColor=#d79b00;" parent="1" vertex="1">
          <mxGeometry x="180" y="2180" width="80" height="50" as="geometry" />
        </mxCell>
        <mxCell id="QqDQ2wGyLcQJu00NtUJg-81" value="" style="edgeStyle=orthogonalEdgeStyle;rounded=0;orthogonalLoop=1;jettySize=auto;html=1;fontSize=14;" parent="1" source="QqDQ2wGyLcQJu00NtUJg-82" target="QqDQ2wGyLcQJu00NtUJg-73" edge="1">
          <mxGeometry relative="1" as="geometry" />
        </mxCell>
        <mxCell id="QqDQ2wGyLcQJu00NtUJg-82" value="&lt;font style=&quot;font-size: 14px&quot;&gt;开始&lt;/font&gt;" style="strokeWidth=2;html=1;shape=mxgraph.flowchart.terminator;whiteSpace=wrap;fillColor=#ffe6cc;strokeColor=#d79b00;" parent="1" vertex="1">
          <mxGeometry x="180" y="1738" width="80" height="50" as="geometry" />
        </mxCell>
        <mxCell id="QqDQ2wGyLcQJu00NtUJg-83" value="Y" style="edgeStyle=orthogonalEdgeStyle;rounded=0;orthogonalLoop=1;jettySize=auto;html=1;fontSize=14;exitX=0.5;exitY=1;exitDx=0;exitDy=0;" parent="1" source="QqDQ2wGyLcQJu00NtUJg-85" target="QqDQ2wGyLcQJu00NtUJg-79" edge="1">
          <mxGeometry relative="1" as="geometry">
            <mxPoint x="220" y="2038" as="sourcePoint" />
          </mxGeometry>
        </mxCell>
        <mxCell id="QqDQ2wGyLcQJu00NtUJg-84" value="" style="endArrow=classic;html=1;rounded=0;fontSize=14;entryX=1;entryY=0.5;entryDx=0;entryDy=0;entryPerimeter=0;edgeStyle=elbowEdgeStyle;" parent="1" target="QqDQ2wGyLcQJu00NtUJg-80" edge="1">
          <mxGeometry width="50" height="50" relative="1" as="geometry">
            <mxPoint x="330" y="1878" as="sourcePoint" />
            <mxPoint x="330" y="2558" as="targetPoint" />
            <Array as="points">
              <mxPoint x="330" y="2228" />
            </Array>
          </mxGeometry>
        </mxCell>
        <mxCell id="QqDQ2wGyLcQJu00NtUJg-85" value="删除角色权限" style="rounded=1;whiteSpace=wrap;html=1;fontSize=12;glass=0;strokeWidth=1;shadow=0;" parent="1" vertex="1">
          <mxGeometry x="160" y="1980" width="120" height="40" as="geometry" />
        </mxCell>
        <mxCell id="QqDQ2wGyLcQJu00NtUJg-86" value="角色管理" style="shape=umlLifeline;perimeter=lifelinePerimeter;container=1;collapsible=0;recursiveResize=0;rounded=0;shadow=0;strokeWidth=1;" parent="1" vertex="1">
          <mxGeometry x="480" y="1738" width="100" height="300" as="geometry" />
        </mxCell>
        <mxCell id="QqDQ2wGyLcQJu00NtUJg-87" value="" style="points=[];perimeter=orthogonalPerimeter;rounded=0;shadow=0;strokeWidth=1;" parent="QqDQ2wGyLcQJu00NtUJg-86" vertex="1">
          <mxGeometry x="45" y="70" width="10" height="190" as="geometry" />
        </mxCell>
        <mxCell id="QqDQ2wGyLcQJu00NtUJg-96" value="1、编辑请求" style="html=1;verticalAlign=bottom;startArrow=oval;startFill=1;endArrow=block;startSize=8;rounded=0;" parent="QqDQ2wGyLcQJu00NtUJg-86" edge="1">
          <mxGeometry width="60" relative="1" as="geometry">
            <mxPoint x="-15" y="70" as="sourcePoint" />
            <mxPoint x="45" y="70" as="targetPoint" />
          </mxGeometry>
        </mxCell>
        <mxCell id="QqDQ2wGyLcQJu00NtUJg-100" value="" style="points=[];perimeter=orthogonalPerimeter;rounded=0;shadow=0;strokeWidth=1;" parent="QqDQ2wGyLcQJu00NtUJg-86" vertex="1">
          <mxGeometry x="50" y="166" width="10" height="30" as="geometry" />
        </mxCell>
        <mxCell id="QqDQ2wGyLcQJu00NtUJg-101" value="5、删除角色权限" style="edgeStyle=orthogonalEdgeStyle;html=1;align=left;spacingLeft=2;endArrow=block;rounded=0;entryX=1;entryY=0;fontSize=14;" parent="QqDQ2wGyLcQJu00NtUJg-86" edge="1">
          <mxGeometry relative="1" as="geometry">
            <mxPoint x="60" y="166" as="sourcePoint" />
            <Array as="points">
              <mxPoint x="90" y="166" />
            </Array>
            <mxPoint x="65" y="186" as="targetPoint" />
          </mxGeometry>
        </mxCell>
        <mxCell id="QqDQ2wGyLcQJu00NtUJg-102" value="" style="points=[];perimeter=orthogonalPerimeter;rounded=0;shadow=0;strokeWidth=1;" parent="QqDQ2wGyLcQJu00NtUJg-86" vertex="1">
          <mxGeometry x="50" y="218" width="10" height="30" as="geometry" />
        </mxCell>
        <mxCell id="QqDQ2wGyLcQJu00NtUJg-103" value="6、新增角色权限" style="edgeStyle=orthogonalEdgeStyle;html=1;align=left;spacingLeft=2;endArrow=block;rounded=0;entryX=1;entryY=0;fontSize=14;" parent="QqDQ2wGyLcQJu00NtUJg-86" edge="1">
          <mxGeometry relative="1" as="geometry">
            <mxPoint x="60" y="218" as="sourcePoint" />
            <Array as="points">
              <mxPoint x="90" y="218" />
            </Array>
            <mxPoint x="65" y="238" as="targetPoint" />
          </mxGeometry>
        </mxCell>
        <mxCell id="QqDQ2wGyLcQJu00NtUJg-105" value="" style="points=[];perimeter=orthogonalPerimeter;rounded=0;shadow=0;strokeWidth=1;" parent="QqDQ2wGyLcQJu00NtUJg-86" vertex="1">
          <mxGeometry x="50" y="77" width="10" height="30" as="geometry" />
        </mxCell>
        <mxCell id="QqDQ2wGyLcQJu00NtUJg-106" value="2、过滤角色权限" style="edgeStyle=orthogonalEdgeStyle;html=1;align=left;spacingLeft=2;endArrow=block;rounded=0;entryX=1;entryY=0;fontSize=14;" parent="QqDQ2wGyLcQJu00NtUJg-86" edge="1">
          <mxGeometry relative="1" as="geometry">
            <mxPoint x="60" y="77" as="sourcePoint" />
            <Array as="points">
              <mxPoint x="90" y="77" />
            </Array>
            <mxPoint x="65" y="97" as="targetPoint" />
          </mxGeometry>
        </mxCell>
        <mxCell id="QqDQ2wGyLcQJu00NtUJg-90" value="权限管理" style="shape=umlLifeline;perimeter=lifelinePerimeter;container=1;collapsible=0;recursiveResize=0;rounded=0;shadow=0;strokeWidth=1;" parent="1" vertex="1">
          <mxGeometry x="660" y="1738" width="100" height="300" as="geometry" />
        </mxCell>
        <mxCell id="QqDQ2wGyLcQJu00NtUJg-91" value="" style="points=[];perimeter=orthogonalPerimeter;rounded=0;shadow=0;strokeWidth=1;" parent="QqDQ2wGyLcQJu00NtUJg-90" vertex="1">
          <mxGeometry x="45" y="110" width="10" height="32" as="geometry" />
        </mxCell>
        <mxCell id="QqDQ2wGyLcQJu00NtUJg-93" value="3、权限信息校验" style="verticalAlign=bottom;endArrow=block;entryX=0;entryY=0;shadow=0;strokeWidth=1;rounded=0;" parent="1" edge="1">
          <mxGeometry relative="1" as="geometry">
            <mxPoint x="535" y="1850" as="sourcePoint" />
            <mxPoint x="705" y="1850" as="targetPoint" />
          </mxGeometry>
        </mxCell>
        <mxCell id="QqDQ2wGyLcQJu00NtUJg-97" value="4、return" style="html=1;verticalAlign=bottom;endArrow=open;dashed=1;endSize=8;rounded=0;exitX=0.5;exitY=1;exitDx=0;exitDy=0;exitPerimeter=0;entryX=1.1;entryY=0.321;entryDx=0;entryDy=0;entryPerimeter=0;" parent="1" edge="1">
          <mxGeometry relative="1" as="geometry">
            <mxPoint x="710" y="1881" as="sourcePoint" />
            <mxPoint x="536" y="1881.9899999999998" as="targetPoint" />
          </mxGeometry>
        </mxCell>
        <mxCell id="QqDQ2wGyLcQJu00NtUJg-104" value="7、return" style="html=1;verticalAlign=bottom;endArrow=open;dashed=1;endSize=8;rounded=0;" parent="1" edge="1">
          <mxGeometry relative="1" as="geometry">
            <mxPoint x="533" y="1998" as="sourcePoint" />
            <mxPoint x="453" y="1998" as="targetPoint" />
          </mxGeometry>
        </mxCell>
        <mxCell id="QqDQ2wGyLcQJu00NtUJg-132" value="登录/退出" style="shape=umlLifeline;perimeter=lifelinePerimeter;container=1;collapsible=0;recursiveResize=0;rounded=0;shadow=0;strokeWidth=1;" parent="1" vertex="1">
          <mxGeometry x="2197" y="1300" width="100" height="480" as="geometry" />
        </mxCell>
        <mxCell id="QqDQ2wGyLcQJu00NtUJg-133" value="" style="points=[];perimeter=orthogonalPerimeter;rounded=0;shadow=0;strokeWidth=1;" parent="QqDQ2wGyLcQJu00NtUJg-132" vertex="1">
          <mxGeometry x="45" y="70" width="10" height="380" as="geometry" />
        </mxCell>
        <mxCell id="QqDQ2wGyLcQJu00NtUJg-134" value="登录请求" style="html=1;verticalAlign=bottom;startArrow=oval;startFill=1;endArrow=block;startSize=8;rounded=0;" parent="QqDQ2wGyLcQJu00NtUJg-132" edge="1">
          <mxGeometry width="60" relative="1" as="geometry">
            <mxPoint x="-15" y="70" as="sourcePoint" />
            <mxPoint x="45" y="70" as="targetPoint" />
          </mxGeometry>
        </mxCell>
        <mxCell id="QqDQ2wGyLcQJu00NtUJg-145" value="return" style="html=1;verticalAlign=bottom;endArrow=open;dashed=1;endSize=8;rounded=0;" parent="1" edge="1">
          <mxGeometry relative="1" as="geometry">
            <mxPoint x="2250" y="1750" as="sourcePoint" />
            <mxPoint x="2170" y="1750" as="targetPoint" />
          </mxGeometry>
        </mxCell>
        <mxCell id="QqDQ2wGyLcQJu00NtUJg-148" value="用户管理" style="shape=umlLifeline;perimeter=lifelinePerimeter;container=1;collapsible=0;recursiveResize=0;rounded=0;shadow=0;strokeWidth=1;" parent="1" vertex="1">
          <mxGeometry x="2370" y="1300" width="100" height="480" as="geometry" />
        </mxCell>
        <mxCell id="QqDQ2wGyLcQJu00NtUJg-149" value="" style="points=[];perimeter=orthogonalPerimeter;rounded=0;shadow=0;strokeWidth=1;" parent="QqDQ2wGyLcQJu00NtUJg-148" vertex="1">
          <mxGeometry x="45" y="90" width="10" height="290" as="geometry" />
        </mxCell>
        <mxCell id="QqDQ2wGyLcQJu00NtUJg-170" value="用户信息查询" style="verticalAlign=bottom;endArrow=block;shadow=0;strokeWidth=1;rounded=0;" parent="QqDQ2wGyLcQJu00NtUJg-148" edge="1">
          <mxGeometry relative="1" as="geometry">
            <mxPoint x="-118" y="90" as="sourcePoint" />
            <mxPoint x="57" y="90" as="targetPoint" />
          </mxGeometry>
        </mxCell>
        <mxCell id="QqDQ2wGyLcQJu00NtUJg-183" value="角色权限查询" style="verticalAlign=bottom;endArrow=block;shadow=0;strokeWidth=1;rounded=0;" parent="QqDQ2wGyLcQJu00NtUJg-148" edge="1">
          <mxGeometry relative="1" as="geometry">
            <mxPoint x="-118" y="390" as="sourcePoint" />
            <mxPoint x="719.5" y="390" as="targetPoint" />
          </mxGeometry>
        </mxCell>
        <mxCell id="QqDQ2wGyLcQJu00NtUJg-152" value="人员管理" style="shape=umlLifeline;perimeter=lifelinePerimeter;container=1;collapsible=0;recursiveResize=0;rounded=0;shadow=0;strokeWidth=1;" parent="1" vertex="1">
          <mxGeometry x="2550" y="1300" width="100" height="480" as="geometry" />
        </mxCell>
        <mxCell id="QqDQ2wGyLcQJu00NtUJg-153" value="" style="points=[];perimeter=orthogonalPerimeter;rounded=0;shadow=0;strokeWidth=1;" parent="QqDQ2wGyLcQJu00NtUJg-152" vertex="1">
          <mxGeometry x="45" y="140" width="10" height="150" as="geometry" />
        </mxCell>
        <mxCell id="QqDQ2wGyLcQJu00NtUJg-154" value="人员信息查询" style="verticalAlign=bottom;endArrow=block;shadow=0;strokeWidth=1;rounded=0;" parent="QqDQ2wGyLcQJu00NtUJg-152" edge="1">
          <mxGeometry relative="1" as="geometry">
            <mxPoint x="-125" y="140" as="sourcePoint" />
            <mxPoint x="50" y="140" as="targetPoint" />
          </mxGeometry>
        </mxCell>
        <mxCell id="QqDQ2wGyLcQJu00NtUJg-156" value="岗位管理" style="shape=umlLifeline;perimeter=lifelinePerimeter;container=1;collapsible=0;recursiveResize=0;rounded=0;shadow=0;strokeWidth=1;" parent="1" vertex="1">
          <mxGeometry x="2890" y="1300" width="100" height="480" as="geometry" />
        </mxCell>
        <mxCell id="QqDQ2wGyLcQJu00NtUJg-157" value="" style="points=[];perimeter=orthogonalPerimeter;rounded=0;shadow=0;strokeWidth=1;" parent="QqDQ2wGyLcQJu00NtUJg-156" vertex="1">
          <mxGeometry x="45" y="212" width="10" height="30" as="geometry" />
        </mxCell>
        <mxCell id="QqDQ2wGyLcQJu00NtUJg-158" value="角色管理" style="shape=umlLifeline;perimeter=lifelinePerimeter;container=1;collapsible=0;recursiveResize=0;rounded=0;shadow=0;strokeWidth=1;" parent="1" vertex="1">
          <mxGeometry x="3040" y="1300" width="100" height="480" as="geometry" />
        </mxCell>
        <mxCell id="QqDQ2wGyLcQJu00NtUJg-159" value="" style="points=[];perimeter=orthogonalPerimeter;rounded=0;shadow=0;strokeWidth=1;" parent="QqDQ2wGyLcQJu00NtUJg-158" vertex="1">
          <mxGeometry x="45" y="320" width="10" height="30" as="geometry" />
        </mxCell>
        <mxCell id="QqDQ2wGyLcQJu00NtUJg-182" value="" style="points=[];perimeter=orthogonalPerimeter;rounded=0;shadow=0;strokeWidth=1;" parent="QqDQ2wGyLcQJu00NtUJg-158" vertex="1">
          <mxGeometry x="45" y="390" width="10" height="50" as="geometry" />
        </mxCell>
        <mxCell id="QqDQ2wGyLcQJu00NtUJg-184" value="return" style="html=1;verticalAlign=bottom;endArrow=open;dashed=1;endSize=8;rounded=0;fontSize=14;" parent="QqDQ2wGyLcQJu00NtUJg-158" edge="1">
          <mxGeometry relative="1" as="geometry">
            <mxPoint x="54" y="440" as="sourcePoint" />
            <mxPoint x="-789.5" y="440" as="targetPoint" />
          </mxGeometry>
        </mxCell>
        <mxCell id="QqDQ2wGyLcQJu00NtUJg-160" value="return" style="html=1;verticalAlign=bottom;endArrow=open;dashed=1;endSize=8;rounded=0;fontSize=14;" parent="1" edge="1">
          <mxGeometry relative="1" as="geometry">
            <mxPoint x="2424" y="1680" as="sourcePoint" />
            <mxPoint x="2250.5" y="1680" as="targetPoint" />
          </mxGeometry>
        </mxCell>
        <mxCell id="QqDQ2wGyLcQJu00NtUJg-161" value="用户角色信息查询" style="verticalAlign=bottom;endArrow=block;shadow=0;strokeWidth=1;rounded=0;exitX=1.3;exitY=0.431;exitDx=0;exitDy=0;exitPerimeter=0;" parent="1" edge="1">
          <mxGeometry relative="1" as="geometry">
            <mxPoint x="2427" y="1619.98" as="sourcePoint" />
            <mxPoint x="3090" y="1620" as="targetPoint" />
          </mxGeometry>
        </mxCell>
        <mxCell id="QqDQ2wGyLcQJu00NtUJg-162" value="return" style="verticalAlign=bottom;endArrow=open;dashed=1;endSize=8;shadow=0;strokeWidth=1;rounded=0;" parent="1" edge="1">
          <mxGeometry relative="1" as="geometry">
            <mxPoint x="2426.5" y="1650" as="targetPoint" />
            <mxPoint x="3090" y="1650" as="sourcePoint" />
          </mxGeometry>
        </mxCell>
        <mxCell id="QqDQ2wGyLcQJu00NtUJg-163" value="部门管理" style="shape=umlLifeline;perimeter=lifelinePerimeter;container=1;collapsible=0;recursiveResize=0;rounded=0;shadow=0;strokeWidth=1;" parent="1" vertex="1">
          <mxGeometry x="2720" y="1300" width="100" height="480" as="geometry" />
        </mxCell>
        <mxCell id="QqDQ2wGyLcQJu00NtUJg-164" value="" style="points=[];perimeter=orthogonalPerimeter;rounded=0;shadow=0;strokeWidth=1;" parent="QqDQ2wGyLcQJu00NtUJg-163" vertex="1">
          <mxGeometry x="45" y="152" width="10" height="30" as="geometry" />
        </mxCell>
        <mxCell id="QqDQ2wGyLcQJu00NtUJg-166" value="人员部门信息查询" style="verticalAlign=bottom;endArrow=block;shadow=0;strokeWidth=1;rounded=0;" parent="1" edge="1">
          <mxGeometry relative="1" as="geometry">
            <mxPoint x="2605" y="1450" as="sourcePoint" />
            <mxPoint x="2770" y="1450" as="targetPoint" />
          </mxGeometry>
        </mxCell>
        <mxCell id="QqDQ2wGyLcQJu00NtUJg-167" value="return" style="verticalAlign=bottom;endArrow=open;dashed=1;endSize=8;shadow=0;strokeWidth=1;rounded=0;entryX=1;entryY=0.273;entryDx=0;entryDy=0;entryPerimeter=0;" parent="1" edge="1">
          <mxGeometry relative="1" as="geometry">
            <mxPoint x="2605" y="1481.9499999999998" as="targetPoint" />
            <mxPoint x="2770" y="1482" as="sourcePoint" />
          </mxGeometry>
        </mxCell>
        <mxCell id="QqDQ2wGyLcQJu00NtUJg-168" value="return" style="verticalAlign=bottom;endArrow=open;dashed=1;endSize=8;shadow=0;strokeWidth=1;rounded=0;" parent="1" edge="1">
          <mxGeometry relative="1" as="geometry">
            <mxPoint x="2604.5" y="1542" as="targetPoint" />
            <mxPoint x="2940" y="1542" as="sourcePoint" />
          </mxGeometry>
        </mxCell>
        <mxCell id="QqDQ2wGyLcQJu00NtUJg-169" value="return" style="verticalAlign=bottom;endArrow=open;dashed=1;endSize=8;exitX=0.3;exitY=1.033;shadow=0;strokeWidth=1;rounded=0;exitDx=0;exitDy=0;exitPerimeter=0;" parent="1" edge="1">
          <mxGeometry relative="1" as="geometry">
            <mxPoint x="2425" y="1590" as="targetPoint" />
            <mxPoint x="2605.75" y="1590" as="sourcePoint" />
          </mxGeometry>
        </mxCell>
        <mxCell id="QqDQ2wGyLcQJu00NtUJg-176" value="权限管理" style="shape=umlLifeline;perimeter=lifelinePerimeter;container=1;collapsible=0;recursiveResize=0;rounded=0;shadow=0;strokeWidth=1;" parent="1" vertex="1">
          <mxGeometry x="3208" y="1300" width="100" height="480" as="geometry" />
        </mxCell>
        <mxCell id="QqDQ2wGyLcQJu00NtUJg-177" value="" style="points=[];perimeter=orthogonalPerimeter;rounded=0;shadow=0;strokeWidth=1;" parent="QqDQ2wGyLcQJu00NtUJg-176" vertex="1">
          <mxGeometry x="45" y="400" width="10" height="30" as="geometry" />
        </mxCell>
        <mxCell id="QqDQ2wGyLcQJu00NtUJg-178" value="角色权限信息查询" style="verticalAlign=bottom;endArrow=block;shadow=0;strokeWidth=1;rounded=0;entryX=0.52;entryY=0.694;entryDx=0;entryDy=0;entryPerimeter=0;" parent="1" edge="1">
          <mxGeometry relative="1" as="geometry">
            <mxPoint x="3096" y="1699" as="sourcePoint" />
            <mxPoint x="3260" y="1699.12" as="targetPoint" />
          </mxGeometry>
        </mxCell>
        <mxCell id="QqDQ2wGyLcQJu00NtUJg-179" value="return" style="verticalAlign=bottom;endArrow=open;dashed=1;endSize=8;shadow=0;strokeWidth=1;rounded=0;" parent="1" edge="1">
          <mxGeometry relative="1" as="geometry">
            <mxPoint x="3094" y="1730" as="targetPoint" />
            <mxPoint x="3261.75" y="1730" as="sourcePoint" />
          </mxGeometry>
        </mxCell>
        <mxCell id="QqDQ2wGyLcQJu00NtUJg-165" value="人员岗位信息查询" style="verticalAlign=bottom;endArrow=block;shadow=0;strokeWidth=1;rounded=0;" parent="1" target="QqDQ2wGyLcQJu00NtUJg-156" edge="1">
          <mxGeometry relative="1" as="geometry">
            <mxPoint x="2610" y="1510" as="sourcePoint" />
            <mxPoint x="2770" y="1512.002" as="targetPoint" />
          </mxGeometry>
        </mxCell>
        <mxCell id="QqDQ2wGyLcQJu00NtUJg-185" value="角色管理" style="shape=umlLifeline;perimeter=lifelinePerimeter;container=1;collapsible=0;recursiveResize=0;rounded=0;shadow=0;strokeWidth=1;" parent="1" vertex="1">
          <mxGeometry x="480" y="2060" width="100" height="230" as="geometry" />
        </mxCell>
        <mxCell id="QqDQ2wGyLcQJu00NtUJg-186" value="" style="points=[];perimeter=orthogonalPerimeter;rounded=0;shadow=0;strokeWidth=1;" parent="QqDQ2wGyLcQJu00NtUJg-185" vertex="1">
          <mxGeometry x="45" y="70" width="10" height="120" as="geometry" />
        </mxCell>
        <mxCell id="QqDQ2wGyLcQJu00NtUJg-187" value="1、查询请求" style="html=1;verticalAlign=bottom;startArrow=oval;startFill=1;endArrow=block;startSize=8;rounded=0;" parent="QqDQ2wGyLcQJu00NtUJg-185" edge="1">
          <mxGeometry width="60" relative="1" as="geometry">
            <mxPoint x="-15" y="70" as="sourcePoint" />
            <mxPoint x="45" y="70" as="targetPoint" />
          </mxGeometry>
        </mxCell>
        <mxCell id="QqDQ2wGyLcQJu00NtUJg-192" value="" style="points=[];perimeter=orthogonalPerimeter;rounded=0;shadow=0;strokeWidth=1;" parent="QqDQ2wGyLcQJu00NtUJg-185" vertex="1">
          <mxGeometry x="50" y="77" width="10" height="30" as="geometry" />
        </mxCell>
        <mxCell id="QqDQ2wGyLcQJu00NtUJg-193" value="2、查询角色权限" style="edgeStyle=orthogonalEdgeStyle;html=1;align=left;spacingLeft=2;endArrow=block;rounded=0;entryX=1;entryY=0;fontSize=14;" parent="QqDQ2wGyLcQJu00NtUJg-185" edge="1">
          <mxGeometry relative="1" as="geometry">
            <mxPoint x="60" y="77" as="sourcePoint" />
            <Array as="points">
              <mxPoint x="90" y="77" />
            </Array>
            <mxPoint x="65" y="97" as="targetPoint" />
          </mxGeometry>
        </mxCell>
        <mxCell id="QqDQ2wGyLcQJu00NtUJg-198" value="5、return" style="html=1;verticalAlign=bottom;endArrow=open;dashed=1;endSize=8;rounded=0;" parent="QqDQ2wGyLcQJu00NtUJg-185" edge="1">
          <mxGeometry relative="1" as="geometry">
            <mxPoint x="45" y="190" as="sourcePoint" />
            <mxPoint x="-35" y="190" as="targetPoint" />
          </mxGeometry>
        </mxCell>
        <mxCell id="QqDQ2wGyLcQJu00NtUJg-194" value="权限管理" style="shape=umlLifeline;perimeter=lifelinePerimeter;container=1;collapsible=0;recursiveResize=0;rounded=0;shadow=0;strokeWidth=1;" parent="1" vertex="1">
          <mxGeometry x="660" y="2060" width="100" height="230" as="geometry" />
        </mxCell>
        <mxCell id="QqDQ2wGyLcQJu00NtUJg-195" value="" style="points=[];perimeter=orthogonalPerimeter;rounded=0;shadow=0;strokeWidth=1;" parent="QqDQ2wGyLcQJu00NtUJg-194" vertex="1">
          <mxGeometry x="45" y="110" width="10" height="32" as="geometry" />
        </mxCell>
        <mxCell id="QqDQ2wGyLcQJu00NtUJg-196" value="3、权限信息校验" style="verticalAlign=bottom;endArrow=block;entryX=0;entryY=0;shadow=0;strokeWidth=1;rounded=0;" parent="1" edge="1">
          <mxGeometry relative="1" as="geometry">
            <mxPoint x="535" y="2172" as="sourcePoint" />
            <mxPoint x="705" y="2172" as="targetPoint" />
          </mxGeometry>
        </mxCell>
        <mxCell id="QqDQ2wGyLcQJu00NtUJg-210" value="" style="rounded=0;whiteSpace=wrap;html=1;fontSize=18;strokeColor=#d79b00;fillColor=#ffe6cc;" parent="1" vertex="1">
          <mxGeometry x="1156" y="1860" width="314" height="460" as="geometry" />
        </mxCell>
        <mxCell id="QqDQ2wGyLcQJu00NtUJg-211" value="" style="rounded=0;whiteSpace=wrap;html=1;fontSize=18;strokeColor=#d79b00;fillColor=#ffe6cc;" parent="1" vertex="1">
          <mxGeometry x="1470" y="1860" width="167" height="460" as="geometry" />
        </mxCell>
        <mxCell id="QqDQ2wGyLcQJu00NtUJg-197" value="4、return" style="html=1;verticalAlign=bottom;endArrow=open;dashed=1;endSize=8;rounded=0;exitX=0.5;exitY=1;exitDx=0;exitDy=0;exitPerimeter=0;entryX=1.1;entryY=0.321;entryDx=0;entryDy=0;entryPerimeter=0;" parent="1" edge="1">
          <mxGeometry relative="1" as="geometry">
            <mxPoint x="710" y="2203" as="sourcePoint" />
            <mxPoint x="536" y="2203.99" as="targetPoint" />
          </mxGeometry>
        </mxCell>
        <mxCell id="QqDQ2wGyLcQJu00NtUJg-199" value="负责人管理" style="shape=umlLifeline;perimeter=lifelinePerimeter;container=1;collapsible=0;recursiveResize=0;rounded=0;shadow=0;strokeWidth=1;" parent="1" vertex="1">
          <mxGeometry x="1170" y="1960" width="100" height="230" as="geometry" />
        </mxCell>
        <mxCell id="QqDQ2wGyLcQJu00NtUJg-200" value="" style="points=[];perimeter=orthogonalPerimeter;rounded=0;shadow=0;strokeWidth=1;" parent="QqDQ2wGyLcQJu00NtUJg-199" vertex="1">
          <mxGeometry x="45" y="70" width="10" height="140" as="geometry" />
        </mxCell>
        <mxCell id="QqDQ2wGyLcQJu00NtUJg-201" value="1、新增负责人请求" style="html=1;verticalAlign=bottom;startArrow=oval;startFill=1;endArrow=block;startSize=8;rounded=0;entryX=0.47;entryY=0.3;entryDx=0;entryDy=0;entryPerimeter=0;" parent="QqDQ2wGyLcQJu00NtUJg-199" target="QqDQ2wGyLcQJu00NtUJg-199" edge="1">
          <mxGeometry width="60" relative="1" as="geometry">
            <mxPoint x="-38" y="70" as="sourcePoint" />
            <mxPoint x="22" y="70" as="targetPoint" />
          </mxGeometry>
        </mxCell>
        <mxCell id="QqDQ2wGyLcQJu00NtUJg-202" value="" style="points=[];perimeter=orthogonalPerimeter;rounded=0;shadow=0;strokeWidth=1;" parent="QqDQ2wGyLcQJu00NtUJg-199" vertex="1">
          <mxGeometry x="50" y="77" width="10" height="30" as="geometry" />
        </mxCell>
        <mxCell id="QqDQ2wGyLcQJu00NtUJg-203" value="2、负责人信息校验" style="edgeStyle=orthogonalEdgeStyle;html=1;align=left;spacingLeft=2;endArrow=block;rounded=0;entryX=1;entryY=0;fontSize=14;" parent="QqDQ2wGyLcQJu00NtUJg-199" edge="1">
          <mxGeometry relative="1" as="geometry">
            <mxPoint x="60" y="77" as="sourcePoint" />
            <Array as="points">
              <mxPoint x="90" y="77" />
            </Array>
            <mxPoint x="65" y="97" as="targetPoint" />
          </mxGeometry>
        </mxCell>
        <mxCell id="QqDQ2wGyLcQJu00NtUJg-204" value="7、return" style="html=1;verticalAlign=bottom;endArrow=open;dashed=1;endSize=8;rounded=0;" parent="QqDQ2wGyLcQJu00NtUJg-199" edge="1">
          <mxGeometry relative="1" as="geometry">
            <mxPoint x="45" y="210" as="sourcePoint" />
            <mxPoint x="-40" y="210" as="targetPoint" />
          </mxGeometry>
        </mxCell>
        <mxCell id="QqDQ2wGyLcQJu00NtUJg-205" value="日志管理" style="shape=umlLifeline;perimeter=lifelinePerimeter;container=1;collapsible=0;recursiveResize=0;rounded=0;shadow=0;strokeWidth=1;" parent="1" vertex="1">
          <mxGeometry x="1500" y="1960" width="100" height="230" as="geometry" />
        </mxCell>
        <mxCell id="QqDQ2wGyLcQJu00NtUJg-206" value="" style="points=[];perimeter=orthogonalPerimeter;rounded=0;shadow=0;strokeWidth=1;" parent="QqDQ2wGyLcQJu00NtUJg-205" vertex="1">
          <mxGeometry x="45" y="170" width="10" height="32" as="geometry" />
        </mxCell>
        <mxCell id="QqDQ2wGyLcQJu00NtUJg-219" value="" style="endArrow=open;endFill=1;endSize=12;html=1;rounded=0;" parent="QqDQ2wGyLcQJu00NtUJg-205" source="QqDQ2wGyLcQJu00NtUJg-200" edge="1">
          <mxGeometry width="160" relative="1" as="geometry">
            <mxPoint x="-111" y="169" as="sourcePoint" />
            <mxPoint x="49" y="169" as="targetPoint" />
          </mxGeometry>
        </mxCell>
        <mxCell id="QqDQ2wGyLcQJu00NtUJg-208" value="4、return" style="html=1;verticalAlign=bottom;endArrow=open;dashed=1;endSize=8;rounded=0;entryX=1.1;entryY=0.321;entryDx=0;entryDy=0;entryPerimeter=0;exitX=0.49;exitY=0.665;exitDx=0;exitDy=0;exitPerimeter=0;" parent="1" source="QqDQ2wGyLcQJu00NtUJg-214" edge="1">
          <mxGeometry relative="1" as="geometry">
            <mxPoint x="1355" y="2111.99" as="sourcePoint" />
            <mxPoint x="1226" y="2111.99" as="targetPoint" />
          </mxGeometry>
        </mxCell>
        <mxCell id="QqDQ2wGyLcQJu00NtUJg-212" value="销售管理模块" style="rounded=0;whiteSpace=wrap;html=1;fontSize=18;strokeColor=#6c8ebf;fillColor=#dae8fc;" parent="1" vertex="1">
          <mxGeometry x="1156" y="1860" width="314" height="62" as="geometry" />
        </mxCell>
        <mxCell id="QqDQ2wGyLcQJu00NtUJg-213" value="用户管理模块" style="rounded=0;whiteSpace=wrap;html=1;fontSize=18;strokeColor=#6c8ebf;fillColor=#dae8fc;" parent="1" vertex="1">
          <mxGeometry x="1470" y="1860" width="167" height="62" as="geometry" />
        </mxCell>
        <mxCell id="QqDQ2wGyLcQJu00NtUJg-214" value="客户管理" style="shape=umlLifeline;perimeter=lifelinePerimeter;container=1;collapsible=0;recursiveResize=0;rounded=0;shadow=0;strokeWidth=1;" parent="1" vertex="1">
          <mxGeometry x="1344" y="1960" width="100" height="230" as="geometry" />
        </mxCell>
        <mxCell id="QqDQ2wGyLcQJu00NtUJg-215" value="" style="points=[];perimeter=orthogonalPerimeter;rounded=0;shadow=0;strokeWidth=1;" parent="QqDQ2wGyLcQJu00NtUJg-214" vertex="1">
          <mxGeometry x="45" y="120" width="10" height="32" as="geometry" />
        </mxCell>
        <mxCell id="QqDQ2wGyLcQJu00NtUJg-207" value="3、客户信息校验" style="verticalAlign=bottom;endArrow=block;shadow=0;strokeWidth=1;rounded=0;entryX=0.2;entryY=0;entryDx=0;entryDy=0;entryPerimeter=0;" parent="1" target="QqDQ2wGyLcQJu00NtUJg-215" edge="1">
          <mxGeometry relative="1" as="geometry">
            <mxPoint x="1226" y="2080" as="sourcePoint" />
            <mxPoint x="1360" y="2080" as="targetPoint" />
          </mxGeometry>
        </mxCell>
        <mxCell id="QqDQ2wGyLcQJu00NtUJg-218" value="6、return" style="html=1;verticalAlign=bottom;endArrow=open;dashed=1;endSize=8;rounded=0;entryX=0.54;entryY=0.874;entryDx=0;entryDy=0;entryPerimeter=0;exitX=0.49;exitY=0.665;exitDx=0;exitDy=0;exitPerimeter=0;" parent="1" target="QqDQ2wGyLcQJu00NtUJg-199" edge="1">
          <mxGeometry relative="1" as="geometry">
            <mxPoint x="1553" y="2161.96" as="sourcePoint" />
            <mxPoint x="1386" y="2161" as="targetPoint" />
          </mxGeometry>
        </mxCell>
        <mxCell id="QqDQ2wGyLcQJu00NtUJg-222" value="&lt;font style=&quot;font-size: 10px&quot;&gt;5、新增日志&lt;/font&gt;" style="rounded=0;whiteSpace=wrap;html=1;fillColor=#FFFFFF;strokeColor=none;" parent="1" vertex="1">
          <mxGeometry x="1397" y="2111" width="70" height="17" as="geometry" />
        </mxCell>
        <mxCell id="QqDQ2wGyLcQJu00NtUJg-223" value="人员管理" style="shape=umlLifeline;perimeter=lifelinePerimeter;container=1;collapsible=0;recursiveResize=0;rounded=0;shadow=0;strokeWidth=1;" parent="1" vertex="1">
          <mxGeometry x="205" y="2338" width="100" height="362" as="geometry" />
        </mxCell>
        <mxCell id="QqDQ2wGyLcQJu00NtUJg-224" value="" style="points=[];perimeter=orthogonalPerimeter;rounded=0;shadow=0;strokeWidth=1;" parent="QqDQ2wGyLcQJu00NtUJg-223" vertex="1">
          <mxGeometry x="45" y="80" width="10" height="210" as="geometry" />
        </mxCell>
        <mxCell id="QqDQ2wGyLcQJu00NtUJg-225" value="" style="points=[];perimeter=orthogonalPerimeter;rounded=0;shadow=0;strokeWidth=1;" parent="QqDQ2wGyLcQJu00NtUJg-223" vertex="1">
          <mxGeometry x="50" y="149" width="10" height="30" as="geometry" />
        </mxCell>
        <mxCell id="QqDQ2wGyLcQJu00NtUJg-226" value="4、人员部门关系新增" style="edgeStyle=orthogonalEdgeStyle;html=1;align=left;spacingLeft=2;endArrow=block;rounded=0;entryX=1;entryY=0;fontSize=14;" parent="QqDQ2wGyLcQJu00NtUJg-223" edge="1">
          <mxGeometry relative="1" as="geometry">
            <mxPoint x="60" y="149" as="sourcePoint" />
            <Array as="points">
              <mxPoint x="90" y="149" />
            </Array>
            <mxPoint x="65" y="169" as="targetPoint" />
          </mxGeometry>
        </mxCell>
        <mxCell id="QqDQ2wGyLcQJu00NtUJg-228" value="8、return" style="verticalAlign=bottom;endArrow=open;dashed=1;endSize=8;exitX=0;exitY=0.95;shadow=0;strokeWidth=1;rounded=0;" parent="1" edge="1">
          <mxGeometry relative="1" as="geometry">
            <mxPoint x="180" y="2628" as="targetPoint" />
            <mxPoint x="250" y="2627.5" as="sourcePoint" />
          </mxGeometry>
        </mxCell>
        <mxCell id="QqDQ2wGyLcQJu00NtUJg-230" value="部门管理" style="shape=umlLifeline;perimeter=lifelinePerimeter;container=1;collapsible=0;recursiveResize=0;rounded=0;shadow=0;strokeWidth=1;" parent="1" vertex="1">
          <mxGeometry x="385" y="2338" width="100" height="362" as="geometry" />
        </mxCell>
        <mxCell id="QqDQ2wGyLcQJu00NtUJg-231" value="" style="points=[];perimeter=orthogonalPerimeter;rounded=0;shadow=0;strokeWidth=1;" parent="QqDQ2wGyLcQJu00NtUJg-230" vertex="1">
          <mxGeometry x="45" y="100" width="10" height="30" as="geometry" />
        </mxCell>
        <mxCell id="QqDQ2wGyLcQJu00NtUJg-232" value="2、部门信息校验" style="verticalAlign=bottom;endArrow=block;entryX=0;entryY=0;shadow=0;strokeWidth=1;rounded=0;" parent="QqDQ2wGyLcQJu00NtUJg-230" edge="1">
          <mxGeometry relative="1" as="geometry">
            <mxPoint x="-125" y="100.00000000000011" as="sourcePoint" />
            <mxPoint x="45" y="100.00000000000011" as="targetPoint" />
          </mxGeometry>
        </mxCell>
        <mxCell id="QqDQ2wGyLcQJu00NtUJg-233" value="5、岗位信息校验" style="verticalAlign=bottom;endArrow=block;shadow=0;strokeWidth=1;rounded=0;" parent="QqDQ2wGyLcQJu00NtUJg-230" target="QqDQ2wGyLcQJu00NtUJg-234" edge="1">
          <mxGeometry relative="1" as="geometry">
            <mxPoint x="-125" y="200.0000000000001" as="sourcePoint" />
            <mxPoint x="45" y="200.0000000000001" as="targetPoint" />
          </mxGeometry>
        </mxCell>
        <mxCell id="QqDQ2wGyLcQJu00NtUJg-234" value="岗位管理" style="shape=umlLifeline;perimeter=lifelinePerimeter;container=1;collapsible=0;recursiveResize=0;rounded=0;shadow=0;strokeWidth=1;" parent="1" vertex="1">
          <mxGeometry x="565" y="2338" width="100" height="362" as="geometry" />
        </mxCell>
        <mxCell id="QqDQ2wGyLcQJu00NtUJg-235" value="" style="points=[];perimeter=orthogonalPerimeter;rounded=0;shadow=0;strokeWidth=1;" parent="QqDQ2wGyLcQJu00NtUJg-234" vertex="1">
          <mxGeometry x="45" y="200" width="10" height="30" as="geometry" />
        </mxCell>
        <mxCell id="QqDQ2wGyLcQJu00NtUJg-238" value="3、return" style="verticalAlign=bottom;endArrow=open;dashed=1;endSize=8;exitX=0;exitY=0.95;shadow=0;strokeWidth=1;rounded=0;" parent="1" edge="1">
          <mxGeometry relative="1" as="geometry">
            <mxPoint x="260" y="2468" as="targetPoint" />
            <mxPoint x="430" y="2468" as="sourcePoint" />
          </mxGeometry>
        </mxCell>
        <mxCell id="QqDQ2wGyLcQJu00NtUJg-239" value="6、return" style="verticalAlign=bottom;endArrow=open;dashed=1;endSize=8;exitX=0;exitY=0.95;shadow=0;strokeWidth=1;rounded=0;entryX=1.1;entryY=0.714;entryDx=0;entryDy=0;entryPerimeter=0;" parent="1" edge="1">
          <mxGeometry relative="1" as="geometry">
            <mxPoint x="261" y="2568.94" as="targetPoint" />
            <mxPoint x="615" y="2568.5" as="sourcePoint" />
          </mxGeometry>
        </mxCell>
        <mxCell id="QqDQ2wGyLcQJu00NtUJg-240" value="" style="points=[];perimeter=orthogonalPerimeter;rounded=0;shadow=0;strokeWidth=1;" parent="1" vertex="1">
          <mxGeometry x="253" y="2581" width="10" height="30" as="geometry" />
        </mxCell>
        <mxCell id="QqDQ2wGyLcQJu00NtUJg-241" value="7、人员岗位关系新增" style="edgeStyle=orthogonalEdgeStyle;html=1;align=left;spacingLeft=2;endArrow=block;rounded=0;entryX=1;entryY=0;fontSize=14;" parent="1" edge="1">
          <mxGeometry relative="1" as="geometry">
            <mxPoint x="263" y="2581" as="sourcePoint" />
            <Array as="points">
              <mxPoint x="293" y="2581" />
            </Array>
            <mxPoint x="268" y="2601" as="targetPoint" />
          </mxGeometry>
        </mxCell>
        <mxCell id="QqDQ2wGyLcQJu00NtUJg-243" value="1、新增请求" style="html=1;verticalAlign=bottom;startArrow=oval;startFill=1;endArrow=block;startSize=8;rounded=0;" parent="1" edge="1">
          <mxGeometry width="60" relative="1" as="geometry">
            <mxPoint x="180" y="2418" as="sourcePoint" />
            <mxPoint x="240" y="2418" as="targetPoint" />
          </mxGeometry>
        </mxCell>
        <mxCell id="QqDQ2wGyLcQJu00NtUJg-249" value="人员管理" style="shape=umlLifeline;perimeter=lifelinePerimeter;container=1;collapsible=0;recursiveResize=0;rounded=0;shadow=0;strokeWidth=1;" parent="1" vertex="1">
          <mxGeometry x="2370" y="1850" width="100" height="510" as="geometry" />
        </mxCell>
        <mxCell id="QqDQ2wGyLcQJu00NtUJg-250" value="" style="points=[];perimeter=orthogonalPerimeter;rounded=0;shadow=0;strokeWidth=1;" parent="QqDQ2wGyLcQJu00NtUJg-249" vertex="1">
          <mxGeometry x="45" y="80" width="10" height="370" as="geometry" />
        </mxCell>
        <mxCell id="QqDQ2wGyLcQJu00NtUJg-251" value="" style="points=[];perimeter=orthogonalPerimeter;rounded=0;shadow=0;strokeWidth=1;" parent="QqDQ2wGyLcQJu00NtUJg-249" vertex="1">
          <mxGeometry x="50" y="93" width="10" height="30" as="geometry" />
        </mxCell>
        <mxCell id="QqDQ2wGyLcQJu00NtUJg-252" value="2、人员部门关系过滤" style="edgeStyle=orthogonalEdgeStyle;html=1;align=left;spacingLeft=2;endArrow=block;rounded=0;entryX=1;entryY=0;fontSize=14;" parent="QqDQ2wGyLcQJu00NtUJg-249" edge="1">
          <mxGeometry relative="1" as="geometry">
            <mxPoint x="60" y="93" as="sourcePoint" />
            <Array as="points">
              <mxPoint x="90" y="93" />
            </Array>
            <mxPoint x="65" y="113" as="targetPoint" />
          </mxGeometry>
        </mxCell>
        <mxCell id="QqDQ2wGyLcQJu00NtUJg-253" value="" style="points=[];perimeter=orthogonalPerimeter;rounded=0;shadow=0;strokeWidth=1;" parent="QqDQ2wGyLcQJu00NtUJg-249" vertex="1">
          <mxGeometry x="50" y="270" width="10" height="30" as="geometry" />
        </mxCell>
        <mxCell id="QqDQ2wGyLcQJu00NtUJg-254" value="7、人员岗位关系过滤" style="edgeStyle=orthogonalEdgeStyle;html=1;align=left;spacingLeft=2;endArrow=block;rounded=0;entryX=1;entryY=0;fontSize=14;" parent="QqDQ2wGyLcQJu00NtUJg-249" edge="1">
          <mxGeometry relative="1" as="geometry">
            <mxPoint x="60" y="270" as="sourcePoint" />
            <Array as="points">
              <mxPoint x="90" y="270" />
            </Array>
            <mxPoint x="65" y="290" as="targetPoint" />
          </mxGeometry>
        </mxCell>
        <mxCell id="QqDQ2wGyLcQJu00NtUJg-255" value="" style="points=[];perimeter=orthogonalPerimeter;rounded=0;shadow=0;strokeWidth=1;" parent="QqDQ2wGyLcQJu00NtUJg-249" vertex="1">
          <mxGeometry x="50" y="350" width="10" height="30" as="geometry" />
        </mxCell>
        <mxCell id="QqDQ2wGyLcQJu00NtUJg-256" value="10、人员岗位关系删除" style="edgeStyle=orthogonalEdgeStyle;html=1;align=left;spacingLeft=2;endArrow=block;rounded=0;entryX=1;entryY=0;fontSize=14;" parent="QqDQ2wGyLcQJu00NtUJg-249" edge="1">
          <mxGeometry relative="1" as="geometry">
            <mxPoint x="60" y="350" as="sourcePoint" />
            <Array as="points">
              <mxPoint x="90" y="350" />
            </Array>
            <mxPoint x="65" y="370" as="targetPoint" />
          </mxGeometry>
        </mxCell>
        <mxCell id="QqDQ2wGyLcQJu00NtUJg-257" value="" style="points=[];perimeter=orthogonalPerimeter;rounded=0;shadow=0;strokeWidth=1;" parent="QqDQ2wGyLcQJu00NtUJg-249" vertex="1">
          <mxGeometry x="50" y="390" width="10" height="30" as="geometry" />
        </mxCell>
        <mxCell id="QqDQ2wGyLcQJu00NtUJg-258" value="11、人员岗位关系新增" style="edgeStyle=orthogonalEdgeStyle;html=1;align=left;spacingLeft=2;endArrow=block;rounded=0;entryX=1;entryY=0;fontSize=14;" parent="QqDQ2wGyLcQJu00NtUJg-249" edge="1">
          <mxGeometry relative="1" as="geometry">
            <mxPoint x="60" y="390" as="sourcePoint" />
            <Array as="points">
              <mxPoint x="90" y="390" />
            </Array>
            <mxPoint x="65" y="410" as="targetPoint" />
          </mxGeometry>
        </mxCell>
        <mxCell id="QqDQ2wGyLcQJu00NtUJg-268" value="12、return" style="html=1;verticalAlign=bottom;endArrow=open;dashed=1;endSize=8;rounded=0;fontSize=14;" parent="QqDQ2wGyLcQJu00NtUJg-249" edge="1">
          <mxGeometry relative="1" as="geometry">
            <mxPoint x="45" y="450" as="sourcePoint" />
            <mxPoint x="-35" y="450" as="targetPoint" />
          </mxGeometry>
        </mxCell>
        <mxCell id="QqDQ2wGyLcQJu00NtUJg-261" value="1、编辑请求" style="html=1;verticalAlign=bottom;startArrow=oval;startFill=1;endArrow=block;startSize=8;rounded=0;fontSize=14;" parent="QqDQ2wGyLcQJu00NtUJg-249" edge="1">
          <mxGeometry width="60" relative="1" as="geometry">
            <mxPoint x="-15" y="80" as="sourcePoint" />
            <mxPoint x="45" y="80" as="targetPoint" />
          </mxGeometry>
        </mxCell>
        <mxCell id="QqDQ2wGyLcQJu00NtUJg-263" value="岗位管理" style="shape=umlLifeline;perimeter=lifelinePerimeter;container=1;collapsible=0;recursiveResize=0;rounded=0;shadow=0;strokeWidth=1;" parent="1" vertex="1">
          <mxGeometry x="2730" y="1850" width="100" height="510" as="geometry" />
        </mxCell>
        <mxCell id="QqDQ2wGyLcQJu00NtUJg-264" value="" style="points=[];perimeter=orthogonalPerimeter;rounded=0;shadow=0;strokeWidth=1;" parent="QqDQ2wGyLcQJu00NtUJg-263" vertex="1">
          <mxGeometry x="45" y="310" width="10" height="30" as="geometry" />
        </mxCell>
        <mxCell id="QqDQ2wGyLcQJu00NtUJg-265" value="9、return" style="verticalAlign=bottom;endArrow=open;dashed=1;endSize=8;exitX=0.3;exitY=1.033;shadow=0;strokeWidth=1;rounded=0;exitDx=0;exitDy=0;exitPerimeter=0;" parent="QqDQ2wGyLcQJu00NtUJg-263" source="QqDQ2wGyLcQJu00NtUJg-264" edge="1">
          <mxGeometry relative="1" as="geometry">
            <mxPoint x="-305" y="340" as="targetPoint" />
            <mxPoint x="40" y="340.14" as="sourcePoint" />
          </mxGeometry>
        </mxCell>
        <mxCell id="QqDQ2wGyLcQJu00NtUJg-270" value="3、人员部门信息校验" style="verticalAlign=bottom;endArrow=block;shadow=0;strokeWidth=1;rounded=0;" parent="1" edge="1">
          <mxGeometry relative="1" as="geometry">
            <mxPoint x="2426" y="1990" as="sourcePoint" />
            <mxPoint x="2600" y="1990" as="targetPoint" />
          </mxGeometry>
        </mxCell>
        <mxCell id="QqDQ2wGyLcQJu00NtUJg-271" value="4、return" style="verticalAlign=bottom;endArrow=open;dashed=1;endSize=8;exitX=0.5;exitY=0.398;shadow=0;strokeWidth=1;rounded=0;exitDx=0;exitDy=0;exitPerimeter=0;" parent="1" edge="1">
          <mxGeometry relative="1" as="geometry">
            <mxPoint x="2426" y="2020" as="targetPoint" />
            <mxPoint x="2596" y="2020.1399999999999" as="sourcePoint" />
          </mxGeometry>
        </mxCell>
        <mxCell id="QqDQ2wGyLcQJu00NtUJg-272" value="" style="points=[];perimeter=orthogonalPerimeter;rounded=0;shadow=0;strokeWidth=1;" parent="1" vertex="1">
          <mxGeometry x="2421" y="2032" width="10" height="30" as="geometry" />
        </mxCell>
        <mxCell id="QqDQ2wGyLcQJu00NtUJg-273" value="5、人员部门关系删除" style="edgeStyle=orthogonalEdgeStyle;html=1;align=left;spacingLeft=2;endArrow=block;rounded=0;entryX=1;entryY=0;fontSize=14;" parent="1" edge="1">
          <mxGeometry relative="1" as="geometry">
            <mxPoint x="2431" y="2032" as="sourcePoint" />
            <Array as="points">
              <mxPoint x="2461" y="2032" />
            </Array>
            <mxPoint x="2436" y="2052" as="targetPoint" />
          </mxGeometry>
        </mxCell>
        <mxCell id="QqDQ2wGyLcQJu00NtUJg-274" value="" style="points=[];perimeter=orthogonalPerimeter;rounded=0;shadow=0;strokeWidth=1;" parent="1" vertex="1">
          <mxGeometry x="2420" y="2067" width="10" height="30" as="geometry" />
        </mxCell>
        <mxCell id="QqDQ2wGyLcQJu00NtUJg-275" value="6、人员部门关系新增" style="edgeStyle=orthogonalEdgeStyle;html=1;align=left;spacingLeft=2;endArrow=block;rounded=0;entryX=1;entryY=0;fontSize=14;" parent="1" edge="1">
          <mxGeometry relative="1" as="geometry">
            <mxPoint x="2430" y="2067" as="sourcePoint" />
            <Array as="points">
              <mxPoint x="2460" y="2067" />
            </Array>
            <mxPoint x="2435" y="2087" as="targetPoint" />
          </mxGeometry>
        </mxCell>
        <mxCell id="QqDQ2wGyLcQJu00NtUJg-276" value="8、人员岗位信息校验" style="verticalAlign=bottom;endArrow=block;shadow=0;strokeWidth=1;rounded=0;" parent="1" edge="1">
          <mxGeometry relative="1" as="geometry">
            <mxPoint x="2424.5" y="2160" as="sourcePoint" />
            <mxPoint x="2779" y="2160" as="targetPoint" />
          </mxGeometry>
        </mxCell>
        <mxCell id="QqDQ2wGyLcQJu00NtUJg-281" value="部门管理" style="shape=umlLifeline;perimeter=lifelinePerimeter;container=1;collapsible=0;recursiveResize=0;rounded=0;shadow=0;strokeWidth=1;" parent="1" vertex="1">
          <mxGeometry x="2550" y="1850" width="100" height="510" as="geometry" />
        </mxCell>
        <mxCell id="QqDQ2wGyLcQJu00NtUJg-282" value="" style="points=[];perimeter=orthogonalPerimeter;rounded=0;shadow=0;strokeWidth=1;" parent="QqDQ2wGyLcQJu00NtUJg-281" vertex="1">
          <mxGeometry x="45" y="140" width="10" height="30" as="geometry" />
        </mxCell>
        <mxCell id="QqDQ2wGyLcQJu00NtUJg-12" value="" style="points=[];perimeter=orthogonalPerimeter;rounded=0;shadow=0;strokeWidth=1;" parent="1" vertex="1">
          <mxGeometry x="2415" y="2510" width="10" height="160" as="geometry" />
        </mxCell>
        <mxCell id="QqDQ2wGyLcQJu00NtUJg-23" value="1、查询请求" style="html=1;verticalAlign=bottom;startArrow=oval;startFill=1;endArrow=block;startSize=8;rounded=0;fontSize=14;" parent="1" edge="1">
          <mxGeometry width="60" relative="1" as="geometry">
            <mxPoint x="2360" y="2510" as="sourcePoint" />
            <mxPoint x="2420" y="2510" as="targetPoint" />
          </mxGeometry>
        </mxCell>
        <mxCell id="QqDQ2wGyLcQJu00NtUJg-30" value="6、return" style="html=1;verticalAlign=bottom;endArrow=open;dashed=1;endSize=8;rounded=0;fontSize=14;" parent="1" edge="1">
          <mxGeometry relative="1" as="geometry">
            <mxPoint x="2415" y="2670" as="sourcePoint" />
            <mxPoint x="2335" y="2670" as="targetPoint" />
          </mxGeometry>
        </mxCell>
        <mxCell id="QqDQ2wGyLcQJu00NtUJg-26" value="" style="points=[];perimeter=orthogonalPerimeter;rounded=0;shadow=0;strokeWidth=1;" parent="1" vertex="1">
          <mxGeometry x="2775" y="2592" width="10" height="30" as="geometry" />
        </mxCell>
        <mxCell id="QqDQ2wGyLcQJu00NtUJg-44" value="" style="points=[];perimeter=orthogonalPerimeter;rounded=0;shadow=0;strokeWidth=1;" parent="1" vertex="1">
          <mxGeometry x="2605" y="2532" width="10" height="30" as="geometry" />
        </mxCell>
        <mxCell id="QqDQ2wGyLcQJu00NtUJg-52" value="4、人员岗位信息查询" style="verticalAlign=bottom;endArrow=block;shadow=0;strokeWidth=1;rounded=0;" parent="1" edge="1">
          <mxGeometry relative="1" as="geometry">
            <mxPoint x="2425" y="2590.69" as="sourcePoint" />
            <mxPoint x="2779.5" y="2590.69" as="targetPoint" />
          </mxGeometry>
        </mxCell>
        <mxCell id="QqDQ2wGyLcQJu00NtUJg-50" value="2、人员部门信息查询" style="verticalAlign=bottom;endArrow=block;shadow=0;strokeWidth=1;rounded=0;" parent="1" edge="1">
          <mxGeometry relative="1" as="geometry">
            <mxPoint x="2425" y="2530" as="sourcePoint" />
            <mxPoint x="2610" y="2530" as="targetPoint" />
          </mxGeometry>
        </mxCell>
        <mxCell id="QqDQ2wGyLcQJu00NtUJg-51" value="3、return" style="verticalAlign=bottom;endArrow=open;dashed=1;endSize=8;exitX=0.3;exitY=1.033;shadow=0;strokeWidth=1;rounded=0;exitDx=0;exitDy=0;exitPerimeter=0;entryX=0.9;entryY=0.338;entryDx=0;entryDy=0;entryPerimeter=0;" parent="1" target="QqDQ2wGyLcQJu00NtUJg-12" edge="1">
          <mxGeometry relative="1" as="geometry">
            <mxPoint x="2420" y="2560" as="targetPoint" />
            <mxPoint x="2607" y="2562" as="sourcePoint" />
          </mxGeometry>
        </mxCell>
        <mxCell id="QqDQ2wGyLcQJu00NtUJg-53" value="5、return" style="verticalAlign=bottom;endArrow=open;dashed=1;endSize=8;exitX=0.3;exitY=1.033;shadow=0;strokeWidth=1;rounded=0;exitDx=0;exitDy=0;exitPerimeter=0;" parent="1" edge="1">
          <mxGeometry relative="1" as="geometry">
            <mxPoint x="2424.5" y="2622" as="targetPoint" />
            <mxPoint x="2786" y="2622" as="sourcePoint" />
          </mxGeometry>
        </mxCell>
        <mxCell id="ZXpeuByK33yPIrJJZpgC-2" value="" style="rounded=0;whiteSpace=wrap;html=1;fillColor=#ffe6cc;strokeColor=#d79b00;" parent="1" vertex="1">
          <mxGeometry x="1220" y="2710" width="980" height="100" as="geometry" />
        </mxCell>
        <mxCell id="ZXpeuByK33yPIrJJZpgC-4" value="&lt;font size=&quot;3&quot;&gt;鉴权服务&lt;/font&gt;" style="rounded=0;whiteSpace=wrap;html=1;" parent="1" vertex="1">
          <mxGeometry x="1960" y="2730" width="120" height="60" as="geometry" />
        </mxCell>
        <mxCell id="ZXpeuByK33yPIrJJZpgC-5" value="&lt;font size=&quot;3&quot;&gt;控制层&lt;/font&gt;" style="rounded=0;whiteSpace=wrap;html=1;fillColor=#f5f5f5;strokeColor=#666666;fontColor=#333333;" parent="1" vertex="1">
          <mxGeometry x="1080" y="2730" width="120" height="60" as="geometry" />
        </mxCell>
        <mxCell id="ZXpeuByK33yPIrJJZpgC-6" value="&lt;font size=&quot;3&quot;&gt;展示层&lt;/font&gt;" style="rounded=0;whiteSpace=wrap;html=1;fillColor=#f5f5f5;strokeColor=#666666;fontColor=#333333;" parent="1" vertex="1">
          <mxGeometry x="1770" y="2350" width="120" height="60" as="geometry" />
        </mxCell>
        <mxCell id="ZXpeuByK33yPIrJJZpgC-7" value="" style="rounded=0;whiteSpace=wrap;html=1;fillColor=#dae8fc;strokeColor=#6c8ebf;" parent="1" vertex="1">
          <mxGeometry x="1943.5" y="2330" width="380" height="100" as="geometry" />
        </mxCell>
        <mxCell id="ZXpeuByK33yPIrJJZpgC-8" value="&lt;font size=&quot;3&quot;&gt;Http/Https&lt;/font&gt;" style="rounded=0;whiteSpace=wrap;html=1;" parent="1" vertex="1">
          <mxGeometry x="1974.5" y="2350" width="120" height="60" as="geometry" />
        </mxCell>
        <mxCell id="ZXpeuByK33yPIrJJZpgC-9" value="&lt;font size=&quot;3&quot;&gt;Socket&lt;/font&gt;" style="rounded=0;whiteSpace=wrap;html=1;" parent="1" vertex="1">
          <mxGeometry x="2177.5" y="2350" width="120" height="60" as="geometry" />
        </mxCell>
        <mxCell id="ZXpeuByK33yPIrJJZpgC-10" value="&lt;font size=&quot;3&quot;&gt;报表分析&lt;/font&gt;" style="rounded=0;whiteSpace=wrap;html=1;fillColor=#f5f5f5;strokeColor=#666666;fontColor=#333333;" parent="1" vertex="1">
          <mxGeometry x="1247.5" y="2880" width="120" height="123" as="geometry" />
        </mxCell>
        <mxCell id="ZXpeuByK33yPIrJJZpgC-11" value="" style="rounded=0;whiteSpace=wrap;html=1;fillColor=#dae8fc;strokeColor=#6c8ebf;" parent="1" vertex="1">
          <mxGeometry x="1370" y="3030" width="810" height="410" as="geometry" />
        </mxCell>
        <mxCell id="ZXpeuByK33yPIrJJZpgC-12" value="" style="rounded=0;whiteSpace=wrap;html=1;" parent="1" vertex="1">
          <mxGeometry x="1414" y="3050" width="210" height="187" as="geometry" />
        </mxCell>
        <mxCell id="ZXpeuByK33yPIrJJZpgC-13" value="项目投标" style="rounded=0;whiteSpace=wrap;html=1;fontSize=14;fillColor=#fff2cc;strokeColor=#d6b656;" parent="1" vertex="1">
          <mxGeometry x="1426.5" y="3087" width="80" height="40" as="geometry" />
        </mxCell>
        <mxCell id="ZXpeuByK33yPIrJJZpgC-14" value="项目方案" style="rounded=0;whiteSpace=wrap;html=1;fontSize=14;fillColor=#fff2cc;strokeColor=#d6b656;" parent="1" vertex="1">
          <mxGeometry x="1534" y="3087" width="80" height="40" as="geometry" />
        </mxCell>
        <mxCell id="ZXpeuByK33yPIrJJZpgC-15" value="项目管理模块" style="rounded=0;whiteSpace=wrap;html=1;fontSize=14;strokeColor=none;" parent="1" vertex="1">
          <mxGeometry x="1414" y="3050" width="90" height="30" as="geometry" />
        </mxCell>
        <mxCell id="ZXpeuByK33yPIrJJZpgC-16" value="项目交底" style="rounded=0;whiteSpace=wrap;html=1;fontSize=14;fillColor=#fff2cc;strokeColor=#d6b656;" parent="1" vertex="1">
          <mxGeometry x="1426.5" y="3137" width="80" height="40" as="geometry" />
        </mxCell>
        <mxCell id="ZXpeuByK33yPIrJJZpgC-17" value="项目进度" style="rounded=0;whiteSpace=wrap;html=1;fontSize=14;fillColor=#fff2cc;strokeColor=#d6b656;" parent="1" vertex="1">
          <mxGeometry x="1534" y="3137" width="80" height="40" as="geometry" />
        </mxCell>
        <mxCell id="ZXpeuByK33yPIrJJZpgC-18" value="项目验收" style="rounded=0;whiteSpace=wrap;html=1;fontSize=14;fillColor=#fff2cc;strokeColor=#d6b656;" parent="1" vertex="1">
          <mxGeometry x="1426.5" y="3187" width="80" height="40" as="geometry" />
        </mxCell>
        <mxCell id="ZXpeuByK33yPIrJJZpgC-19" value="售后工单管理" style="rounded=0;whiteSpace=wrap;html=1;fontSize=14;fillColor=#fff2cc;strokeColor=#d6b656;" parent="1" vertex="1">
          <mxGeometry x="1534" y="3187" width="80" height="40" as="geometry" />
        </mxCell>
        <mxCell id="ZXpeuByK33yPIrJJZpgC-22" value="" style="rounded=0;whiteSpace=wrap;html=1;" parent="1" vertex="1">
          <mxGeometry x="1661" y="3050" width="210" height="187" as="geometry" />
        </mxCell>
        <mxCell id="ZXpeuByK33yPIrJJZpgC-23" value="客户管理" style="rounded=0;whiteSpace=wrap;html=1;fontSize=14;fillColor=#fff2cc;strokeColor=#d6b656;" parent="1" vertex="1">
          <mxGeometry x="1673.5" y="3087" width="80" height="40" as="geometry" />
        </mxCell>
        <mxCell id="ZXpeuByK33yPIrJJZpgC-24" value="机会点报备" style="rounded=0;whiteSpace=wrap;html=1;fontSize=14;fillColor=#fff2cc;strokeColor=#d6b656;" parent="1" vertex="1">
          <mxGeometry x="1781" y="3087" width="80" height="40" as="geometry" />
        </mxCell>
        <mxCell id="ZXpeuByK33yPIrJJZpgC-25" value="销售管理模块" style="rounded=0;whiteSpace=wrap;html=1;fontSize=14;strokeColor=none;" parent="1" vertex="1">
          <mxGeometry x="1661" y="3050" width="90" height="30" as="geometry" />
        </mxCell>
        <mxCell id="ZXpeuByK33yPIrJJZpgC-26" value="项目立项" style="rounded=0;whiteSpace=wrap;html=1;fontSize=14;fillColor=#fff2cc;strokeColor=#d6b656;" parent="1" vertex="1">
          <mxGeometry x="1673.5" y="3137" width="80" height="40" as="geometry" />
        </mxCell>
        <mxCell id="ZXpeuByK33yPIrJJZpgC-27" value="销售合同" style="rounded=0;whiteSpace=wrap;html=1;fontSize=14;fillColor=#fff2cc;strokeColor=#d6b656;" parent="1" vertex="1">
          <mxGeometry x="1781" y="3137" width="80" height="40" as="geometry" />
        </mxCell>
        <mxCell id="ZXpeuByK33yPIrJJZpgC-28" value="开票管理" style="rounded=0;whiteSpace=wrap;html=1;fontSize=14;fillColor=#fff2cc;strokeColor=#d6b656;" parent="1" vertex="1">
          <mxGeometry x="1673.5" y="3187" width="80" height="40" as="geometry" />
        </mxCell>
        <mxCell id="ZXpeuByK33yPIrJJZpgC-29" value="发货申请" style="rounded=0;whiteSpace=wrap;html=1;fontSize=14;fillColor=#fff2cc;strokeColor=#d6b656;" parent="1" vertex="1">
          <mxGeometry x="1781" y="3187" width="80" height="40" as="geometry" />
        </mxCell>
        <mxCell id="ZXpeuByK33yPIrJJZpgC-30" value="" style="rounded=0;whiteSpace=wrap;html=1;" parent="1" vertex="1">
          <mxGeometry x="1914" y="3050" width="210" height="187" as="geometry" />
        </mxCell>
        <mxCell id="ZXpeuByK33yPIrJJZpgC-31" value="采购申请" style="rounded=0;whiteSpace=wrap;html=1;fontSize=14;fillColor=#fff2cc;strokeColor=#d6b656;" parent="1" vertex="1">
          <mxGeometry x="1926.5" y="3087" width="80" height="40" as="geometry" />
        </mxCell>
        <mxCell id="ZXpeuByK33yPIrJJZpgC-32" value="库存发货" style="rounded=0;whiteSpace=wrap;html=1;fontSize=14;fillColor=#fff2cc;strokeColor=#d6b656;" parent="1" vertex="1">
          <mxGeometry x="2034" y="3087" width="80" height="40" as="geometry" />
        </mxCell>
        <mxCell id="ZXpeuByK33yPIrJJZpgC-33" value="采购管理模块" style="rounded=0;whiteSpace=wrap;html=1;fontSize=14;strokeColor=none;" parent="1" vertex="1">
          <mxGeometry x="1914" y="3050" width="90" height="30" as="geometry" />
        </mxCell>
        <mxCell id="ZXpeuByK33yPIrJJZpgC-34" value="采购合同" style="rounded=0;whiteSpace=wrap;html=1;fontSize=14;fillColor=#fff2cc;strokeColor=#d6b656;" parent="1" vertex="1">
          <mxGeometry x="1926.5" y="3137" width="80" height="40" as="geometry" />
        </mxCell>
        <mxCell id="ZXpeuByK33yPIrJJZpgC-35" value="采购付款" style="rounded=0;whiteSpace=wrap;html=1;fontSize=14;fillColor=#fff2cc;strokeColor=#d6b656;" parent="1" vertex="1">
          <mxGeometry x="2034" y="3137" width="80" height="40" as="geometry" />
        </mxCell>
        <mxCell id="ZXpeuByK33yPIrJJZpgC-36" value="退货清单" style="rounded=0;whiteSpace=wrap;html=1;fontSize=14;fillColor=#fff2cc;strokeColor=#d6b656;" parent="1" vertex="1">
          <mxGeometry x="1926.5" y="3187" width="80" height="40" as="geometry" />
        </mxCell>
        <mxCell id="ZXpeuByK33yPIrJJZpgC-37" value="产品管理" style="rounded=0;whiteSpace=wrap;html=1;fontSize=14;fillColor=#fff2cc;strokeColor=#d6b656;" parent="1" vertex="1">
          <mxGeometry x="2034" y="3187" width="80" height="40" as="geometry" />
        </mxCell>
        <mxCell id="ZXpeuByK33yPIrJJZpgC-38" value="" style="rounded=0;whiteSpace=wrap;html=1;" parent="1" vertex="1">
          <mxGeometry x="1415.5" y="3260" width="210" height="160" as="geometry" />
        </mxCell>
        <mxCell id="ZXpeuByK33yPIrJJZpgC-39" value="供应商列表" style="rounded=0;whiteSpace=wrap;html=1;fontSize=14;fillColor=#fff2cc;strokeColor=#d6b656;" parent="1" vertex="1">
          <mxGeometry x="1438" y="3320" width="80" height="40" as="geometry" />
        </mxCell>
        <mxCell id="ZXpeuByK33yPIrJJZpgC-40" value="供应商与产品关系匹配" style="rounded=0;whiteSpace=wrap;html=1;fontSize=14;fillColor=#fff2cc;strokeColor=#d6b656;" parent="1" vertex="1">
          <mxGeometry x="1530" y="3320" width="80" height="40" as="geometry" />
        </mxCell>
        <mxCell id="ZXpeuByK33yPIrJJZpgC-41" value="供应商管理模块" style="rounded=0;whiteSpace=wrap;html=1;fontSize=14;strokeColor=none;" parent="1" vertex="1">
          <mxGeometry x="1414" y="3260" width="102.5" height="30" as="geometry" />
        </mxCell>
        <mxCell id="ZXpeuByK33yPIrJJZpgC-46" value="" style="rounded=0;whiteSpace=wrap;html=1;" parent="1" vertex="1">
          <mxGeometry x="1665" y="3260" width="463" height="160" as="geometry" />
        </mxCell>
        <mxCell id="ZXpeuByK33yPIrJJZpgC-47" value="验收入库" style="rounded=0;whiteSpace=wrap;html=1;fontSize=14;fillColor=#fff2cc;strokeColor=#d6b656;" parent="1" vertex="1">
          <mxGeometry x="1705" y="3297" width="80" height="40" as="geometry" />
        </mxCell>
        <mxCell id="ZXpeuByK33yPIrJJZpgC-48" value="发货管理" style="rounded=0;whiteSpace=wrap;html=1;fontSize=14;fillColor=#fff2cc;strokeColor=#d6b656;" parent="1" vertex="1">
          <mxGeometry x="1856.5" y="3297" width="80" height="40" as="geometry" />
        </mxCell>
        <mxCell id="ZXpeuByK33yPIrJJZpgC-49" value="库存管理模块" style="rounded=0;whiteSpace=wrap;html=1;fontSize=14;strokeColor=none;" parent="1" vertex="1">
          <mxGeometry x="1665" y="3260" width="90" height="30" as="geometry" />
        </mxCell>
        <mxCell id="ZXpeuByK33yPIrJJZpgC-50" value="库存台账" style="rounded=0;whiteSpace=wrap;html=1;fontSize=14;fillColor=#fff2cc;strokeColor=#d6b656;" parent="1" vertex="1">
          <mxGeometry x="2016" y="3297" width="80" height="40" as="geometry" />
        </mxCell>
        <mxCell id="ZXpeuByK33yPIrJJZpgC-51" value="库存盘点" style="rounded=0;whiteSpace=wrap;html=1;fontSize=14;fillColor=#fff2cc;strokeColor=#d6b656;" parent="1" vertex="1">
          <mxGeometry x="1705" y="3350" width="80" height="40" as="geometry" />
        </mxCell>
        <mxCell id="ZXpeuByK33yPIrJJZpgC-52" value="入库记录" style="rounded=0;whiteSpace=wrap;html=1;fontSize=14;fillColor=#fff2cc;strokeColor=#d6b656;" parent="1" vertex="1">
          <mxGeometry x="1856.5" y="3350" width="80" height="40" as="geometry" />
        </mxCell>
        <mxCell id="ZXpeuByK33yPIrJJZpgC-53" value="出库记录" style="rounded=0;whiteSpace=wrap;html=1;fontSize=14;fillColor=#fff2cc;strokeColor=#d6b656;" parent="1" vertex="1">
          <mxGeometry x="2016" y="3350" width="80" height="40" as="geometry" />
        </mxCell>
        <mxCell id="ZXpeuByK33yPIrJJZpgC-75" value="" style="rounded=0;whiteSpace=wrap;html=1;" parent="1" vertex="1">
          <mxGeometry x="1414" y="2900" width="712" height="87" as="geometry" />
        </mxCell>
        <mxCell id="ZXpeuByK33yPIrJJZpgC-76" value="入库报表" style="rounded=0;whiteSpace=wrap;html=1;fontSize=14;fillColor=#fff2cc;strokeColor=#d6b656;" parent="1" vertex="1">
          <mxGeometry x="1601" y="2923.5" width="80" height="40" as="geometry" />
        </mxCell>
        <mxCell id="ZXpeuByK33yPIrJJZpgC-77" value="出库报表" style="rounded=0;whiteSpace=wrap;html=1;fontSize=14;fillColor=#fff2cc;strokeColor=#d6b656;" parent="1" vertex="1">
          <mxGeometry x="1875" y="2923.5" width="80" height="40" as="geometry" />
        </mxCell>
        <mxCell id="ZXpeuByK33yPIrJJZpgC-78" value="报表管理模块" style="rounded=0;whiteSpace=wrap;html=1;fontSize=14;strokeColor=none;" parent="1" vertex="1">
          <mxGeometry x="1414" y="2900" width="90" height="30" as="geometry" />
        </mxCell>
        <mxCell id="ZXpeuByK33yPIrJJZpgC-80" value="供应商管理模块" style="rounded=0;whiteSpace=wrap;html=1;fontSize=14;strokeColor=none;" parent="1" vertex="1">
          <mxGeometry x="1415.5" y="3260" width="102.5" height="30" as="geometry" />
        </mxCell>
        <mxCell id="ZXpeuByK33yPIrJJZpgC-81" value="供应商列表" style="rounded=0;whiteSpace=wrap;html=1;fontSize=14;fillColor=#fff2cc;strokeColor=#d6b656;" parent="1" vertex="1">
          <mxGeometry x="1438" y="3320" width="80" height="40" as="geometry" />
        </mxCell>
        <mxCell id="ZXpeuByK33yPIrJJZpgC-82" value="供应商与产品关系匹配" style="rounded=0;whiteSpace=wrap;html=1;fontSize=14;fillColor=#fff2cc;strokeColor=#d6b656;" parent="1" vertex="1">
          <mxGeometry x="1530" y="3320" width="80" height="40" as="geometry" />
        </mxCell>
        <mxCell id="ZXpeuByK33yPIrJJZpgC-83" value="库存管理模块" style="rounded=0;whiteSpace=wrap;html=1;fontSize=14;strokeColor=none;" parent="1" vertex="1">
          <mxGeometry x="1665" y="3260" width="90" height="30" as="geometry" />
        </mxCell>
        <mxCell id="ZXpeuByK33yPIrJJZpgC-84" value="验收入库" style="rounded=0;whiteSpace=wrap;html=1;fontSize=14;fillColor=#fff2cc;strokeColor=#d6b656;" parent="1" vertex="1">
          <mxGeometry x="1705" y="3297" width="80" height="40" as="geometry" />
        </mxCell>
        <mxCell id="ZXpeuByK33yPIrJJZpgC-86" value="" style="rounded=0;whiteSpace=wrap;html=1;" parent="1" vertex="1">
          <mxGeometry x="1414" y="3488" width="326" height="160" as="geometry" />
        </mxCell>
        <mxCell id="ZXpeuByK33yPIrJJZpgC-87" value="用户管理" style="rounded=0;whiteSpace=wrap;html=1;fontSize=14;fillColor=#fff2cc;strokeColor=#d6b656;" parent="1" vertex="1">
          <mxGeometry x="1534" y="3525" width="80" height="40" as="geometry" />
        </mxCell>
        <mxCell id="ZXpeuByK33yPIrJJZpgC-88" value="角色管理" style="rounded=0;whiteSpace=wrap;html=1;fontSize=14;fillColor=#fff2cc;strokeColor=#d6b656;" parent="1" vertex="1">
          <mxGeometry x="1640" y="3525" width="80" height="40" as="geometry" />
        </mxCell>
        <mxCell id="ZXpeuByK33yPIrJJZpgC-89" value="岗位管理" style="rounded=0;whiteSpace=wrap;html=1;fontSize=14;fillColor=#fff2cc;strokeColor=#d6b656;" parent="1" vertex="1">
          <mxGeometry x="1436" y="3578" width="80" height="40" as="geometry" />
        </mxCell>
        <mxCell id="ZXpeuByK33yPIrJJZpgC-90" value="操作日志" style="rounded=0;whiteSpace=wrap;html=1;fontSize=14;fillColor=#fff2cc;strokeColor=#d6b656;" parent="1" vertex="1">
          <mxGeometry x="1534" y="3578" width="80" height="40" as="geometry" />
        </mxCell>
        <mxCell id="ZXpeuByK33yPIrJJZpgC-91" value="人员管理" style="rounded=0;whiteSpace=wrap;html=1;fontSize=14;fillColor=#fff2cc;strokeColor=#d6b656;" parent="1" vertex="1">
          <mxGeometry x="1640" y="3578" width="80" height="40" as="geometry" />
        </mxCell>
        <mxCell id="ZXpeuByK33yPIrJJZpgC-92" value="用户管理模块" style="rounded=0;whiteSpace=wrap;html=1;fontSize=14;strokeColor=none;" parent="1" vertex="1">
          <mxGeometry x="1414" y="3487" width="90" height="30" as="geometry" />
        </mxCell>
        <mxCell id="ZXpeuByK33yPIrJJZpgC-93" value="组织架构" style="rounded=0;whiteSpace=wrap;html=1;fontSize=14;fillColor=#fff2cc;strokeColor=#d6b656;" parent="1" vertex="1">
          <mxGeometry x="1435.5" y="3525" width="80" height="40" as="geometry" />
        </mxCell>
        <mxCell id="ZXpeuByK33yPIrJJZpgC-118" value="" style="rounded=0;whiteSpace=wrap;html=1;" parent="1" vertex="1">
          <mxGeometry x="1802" y="3487" width="326" height="160" as="geometry" />
        </mxCell>
        <mxCell id="ZXpeuByK33yPIrJJZpgC-119" value="单位管理" style="rounded=0;whiteSpace=wrap;html=1;fontSize=14;fillColor=#fff2cc;strokeColor=#d6b656;" parent="1" vertex="1">
          <mxGeometry x="1922" y="3524" width="80" height="40" as="geometry" />
        </mxCell>
        <mxCell id="ZXpeuByK33yPIrJJZpgC-120" value="产品类型" style="rounded=0;whiteSpace=wrap;html=1;fontSize=14;fillColor=#fff2cc;strokeColor=#d6b656;" parent="1" vertex="1">
          <mxGeometry x="2028" y="3524" width="80" height="40" as="geometry" />
        </mxCell>
        <mxCell id="ZXpeuByK33yPIrJJZpgC-121" value="品牌管理" style="rounded=0;whiteSpace=wrap;html=1;fontSize=14;fillColor=#fff2cc;strokeColor=#d6b656;" parent="1" vertex="1">
          <mxGeometry x="1824" y="3577" width="80" height="40" as="geometry" />
        </mxCell>
        <mxCell id="ZXpeuByK33yPIrJJZpgC-122" value="项目类型" style="rounded=0;whiteSpace=wrap;html=1;fontSize=14;fillColor=#fff2cc;strokeColor=#d6b656;" parent="1" vertex="1">
          <mxGeometry x="1922" y="3577" width="80" height="40" as="geometry" />
        </mxCell>
        <mxCell id="ZXpeuByK33yPIrJJZpgC-123" value="合同类型" style="rounded=0;whiteSpace=wrap;html=1;fontSize=14;fillColor=#fff2cc;strokeColor=#d6b656;" parent="1" vertex="1">
          <mxGeometry x="2028" y="3577" width="80" height="40" as="geometry" />
        </mxCell>
        <mxCell id="ZXpeuByK33yPIrJJZpgC-124" value="基础数据模块" style="rounded=0;whiteSpace=wrap;html=1;fontSize=14;strokeColor=none;" parent="1" vertex="1">
          <mxGeometry x="1802" y="3487" width="90" height="30" as="geometry" />
        </mxCell>
        <mxCell id="ZXpeuByK33yPIrJJZpgC-125" value="公司管理" style="rounded=0;whiteSpace=wrap;html=1;fontSize=14;fillColor=#fff2cc;strokeColor=#d6b656;" parent="1" vertex="1">
          <mxGeometry x="1822.5" y="3524" width="80" height="40" as="geometry" />
        </mxCell>
        <mxCell id="ZXpeuByK33yPIrJJZpgC-126" value="用户管理模块" style="rounded=0;whiteSpace=wrap;html=1;fontSize=14;strokeColor=none;" parent="1" vertex="1">
          <mxGeometry x="1415" y="3488" width="90" height="30" as="geometry" />
        </mxCell>
        <mxCell id="ZXpeuByK33yPIrJJZpgC-127" value="组织架构" style="rounded=0;whiteSpace=wrap;html=1;fontSize=14;fillColor=#fff2cc;strokeColor=#d6b656;" parent="1" vertex="1">
          <mxGeometry x="1435.5" y="3525" width="80" height="40" as="geometry" />
        </mxCell>
        <mxCell id="ZXpeuByK33yPIrJJZpgC-131" value="&lt;font size=&quot;3&quot;&gt;业务功能&lt;/font&gt;" style="rounded=0;whiteSpace=wrap;html=1;fillColor=#f5f5f5;strokeColor=#666666;fontColor=#333333;" parent="1" vertex="1">
          <mxGeometry x="1250" y="3030" width="120" height="410" as="geometry" />
        </mxCell>
        <mxCell id="ZXpeuByK33yPIrJJZpgC-132" value="&lt;font size=&quot;3&quot;&gt;基础配置&lt;/font&gt;" style="rounded=0;whiteSpace=wrap;html=1;fillColor=#f5f5f5;strokeColor=#666666;fontColor=#333333;" parent="1" vertex="1">
          <mxGeometry x="1250" y="3470" width="120" height="200" as="geometry" />
        </mxCell>
        <mxCell id="ZXpeuByK33yPIrJJZpgC-134" value="&lt;font size=&quot;3&quot;&gt;应用层&lt;/font&gt;" style="rounded=0;whiteSpace=wrap;html=1;fillColor=#f5f5f5;strokeColor=#666666;fontColor=#333333;" parent="1" vertex="1">
          <mxGeometry x="1080" y="3227" width="120" height="60" as="geometry" />
        </mxCell>
        <mxCell id="ZXpeuByK33yPIrJJZpgC-136" value="" style="rounded=0;whiteSpace=wrap;html=1;fillColor=#ffe6cc;strokeColor=#d79b00;" parent="1" vertex="1">
          <mxGeometry x="1217" y="2570" width="980" height="100" as="geometry" />
        </mxCell>
        <mxCell id="ZXpeuByK33yPIrJJZpgC-137" value="&lt;font size=&quot;3&quot;&gt;web浏览器&lt;/font&gt;" style="rounded=0;whiteSpace=wrap;html=1;" parent="1" vertex="1">
          <mxGeometry x="1464" y="2590" width="120" height="60" as="geometry" />
        </mxCell>
        <mxCell id="ZXpeuByK33yPIrJJZpgC-138" value="&lt;font size=&quot;3&quot;&gt;App&lt;/font&gt;" style="rounded=0;whiteSpace=wrap;html=1;" parent="1" vertex="1">
          <mxGeometry x="1851.5" y="2590" width="120" height="60" as="geometry" />
        </mxCell>
        <mxCell id="ZXpeuByK33yPIrJJZpgC-139" value="&lt;font size=&quot;3&quot;&gt;表示层&lt;/font&gt;" style="rounded=0;whiteSpace=wrap;html=1;fillColor=#f5f5f5;strokeColor=#666666;fontColor=#333333;" parent="1" vertex="1">
          <mxGeometry x="1077" y="2590" width="120" height="60" as="geometry" />
        </mxCell>
        <mxCell id="ZXpeuByK33yPIrJJZpgC-140" value="&lt;font size=&quot;3&quot;&gt;注册中心&lt;/font&gt;" style="rounded=0;whiteSpace=wrap;html=1;" parent="1" vertex="1">
          <mxGeometry x="1367.5" y="2730" width="120" height="60" as="geometry" />
        </mxCell>
        <mxCell id="ZXpeuByK33yPIrJJZpgC-141" value="&lt;font size=&quot;3&quot;&gt;服务网关&lt;/font&gt;" style="rounded=0;whiteSpace=wrap;html=1;" parent="1" vertex="1">
          <mxGeometry x="1654" y="2730" width="120" height="60" as="geometry" />
        </mxCell>
        <mxCell id="ZXpeuByK33yPIrJJZpgC-142" value="" style="rounded=0;whiteSpace=wrap;html=1;fontSize=14;" parent="1" vertex="1">
          <mxGeometry x="-350" y="2740" width="1290" height="1380" as="geometry" />
        </mxCell>
        <mxCell id="ZXpeuByK33yPIrJJZpgC-143" value="" style="rounded=0;whiteSpace=wrap;html=1;fillColor=#ffe6cc;strokeColor=#d79b00;" parent="1" vertex="1">
          <mxGeometry x="-170" y="2920" width="980" height="100" as="geometry" />
        </mxCell>
        <mxCell id="ZXpeuByK33yPIrJJZpgC-145" value="&lt;font size=&quot;3&quot;&gt;通讯层&lt;/font&gt;" style="rounded=0;whiteSpace=wrap;html=1;fillColor=#f5f5f5;strokeColor=#666666;fontColor=#333333;" parent="1" vertex="1">
          <mxGeometry x="-310" y="2940" width="120" height="60" as="geometry" />
        </mxCell>
        <mxCell id="ZXpeuByK33yPIrJJZpgC-146" value="" style="rounded=0;whiteSpace=wrap;html=1;fillColor=#ffe6cc;strokeColor=#d79b00;" parent="1" vertex="1">
          <mxGeometry x="-173" y="2780" width="980" height="100" as="geometry" />
        </mxCell>
        <mxCell id="ZXpeuByK33yPIrJJZpgC-147" value="&lt;font size=&quot;3&quot;&gt;Web&lt;/font&gt;" style="rounded=0;whiteSpace=wrap;html=1;" parent="1" vertex="1">
          <mxGeometry x="74" y="2800" width="120" height="60" as="geometry" />
        </mxCell>
        <mxCell id="ZXpeuByK33yPIrJJZpgC-148" value="&lt;font size=&quot;3&quot;&gt;App&lt;/font&gt;" style="rounded=0;whiteSpace=wrap;html=1;" parent="1" vertex="1">
          <mxGeometry x="461.5" y="2800" width="120" height="60" as="geometry" />
        </mxCell>
        <mxCell id="ZXpeuByK33yPIrJJZpgC-149" value="&lt;font size=&quot;3&quot;&gt;表示层&lt;/font&gt;" style="rounded=0;whiteSpace=wrap;html=1;fillColor=#f5f5f5;strokeColor=#666666;fontColor=#333333;" parent="1" vertex="1">
          <mxGeometry x="-313" y="2800" width="120" height="60" as="geometry" />
        </mxCell>
        <mxCell id="ZXpeuByK33yPIrJJZpgC-150" value="&lt;font size=&quot;3&quot;&gt;HTTP/HTTPS&lt;/font&gt;" style="rounded=0;whiteSpace=wrap;html=1;" parent="1" vertex="1">
          <mxGeometry x="74" y="2940" width="120" height="60" as="geometry" />
        </mxCell>
        <mxCell id="ZXpeuByK33yPIrJJZpgC-151" value="&lt;font size=&quot;3&quot;&gt;Socket&lt;/font&gt;" style="rounded=0;whiteSpace=wrap;html=1;" parent="1" vertex="1">
          <mxGeometry x="472" y="2943" width="120" height="60" as="geometry" />
        </mxCell>
        <mxCell id="ZXpeuByK33yPIrJJZpgC-162" value="" style="rounded=0;whiteSpace=wrap;html=1;fillColor=#ffe6cc;strokeColor=#d79b00;" parent="1" vertex="1">
          <mxGeometry x="-173" y="3060" width="980" height="380" as="geometry" />
        </mxCell>
        <mxCell id="ZXpeuByK33yPIrJJZpgC-163" value="&lt;font size=&quot;3&quot;&gt;服务层&lt;/font&gt;" style="rounded=0;whiteSpace=wrap;html=1;fillColor=#f5f5f5;strokeColor=#666666;fontColor=#333333;" parent="1" vertex="1">
          <mxGeometry x="-320" y="3205" width="120" height="60" as="geometry" />
        </mxCell>
        <mxCell id="ZXpeuByK33yPIrJJZpgC-166" value="" style="rounded=0;whiteSpace=wrap;html=1;fontSize=14;fillColor=#dae8fc;strokeColor=#6c8ebf;" parent="1" vertex="1">
          <mxGeometry x="-95" y="3077" width="150" height="333" as="geometry" />
        </mxCell>
        <mxCell id="ZXpeuByK33yPIrJJZpgC-167" value="&lt;font style=&quot;font-size: 18px&quot;&gt;监控保护&lt;/font&gt;" style="rounded=0;whiteSpace=wrap;html=1;fontSize=14;fillColor=none;" parent="1" vertex="1">
          <mxGeometry x="-95" y="3077" width="150" height="43" as="geometry" />
        </mxCell>
        <mxCell id="ZXpeuByK33yPIrJJZpgC-168" value="&lt;font size=&quot;3&quot;&gt;限流/熔断&lt;/font&gt;" style="rounded=0;whiteSpace=wrap;html=1;" parent="1" vertex="1">
          <mxGeometry x="-80" y="3160" width="120" height="60" as="geometry" />
        </mxCell>
        <mxCell id="ZXpeuByK33yPIrJJZpgC-169" value="" style="rounded=0;whiteSpace=wrap;html=1;fontSize=14;fillColor=#dae8fc;strokeColor=#6c8ebf;" parent="1" vertex="1">
          <mxGeometry x="75" y="3078.5" width="500" height="141.5" as="geometry" />
        </mxCell>
        <mxCell id="ZXpeuByK33yPIrJJZpgC-170" value="&lt;font style=&quot;font-size: 18px&quot;&gt;注册/配置&lt;/font&gt;" style="rounded=0;whiteSpace=wrap;html=1;fontSize=14;fillColor=none;" parent="1" vertex="1">
          <mxGeometry x="75" y="3078.5" width="500" height="43" as="geometry" />
        </mxCell>
        <mxCell id="ZXpeuByK33yPIrJJZpgC-171" value="&lt;font size=&quot;3&quot;&gt;注册中心&lt;/font&gt;" style="rounded=0;whiteSpace=wrap;html=1;" parent="1" vertex="1">
          <mxGeometry x="110" y="3140" width="120" height="60" as="geometry" />
        </mxCell>
        <mxCell id="ZXpeuByK33yPIrJJZpgC-172" value="&lt;font size=&quot;3&quot;&gt;配置中心&lt;/font&gt;" style="rounded=0;whiteSpace=wrap;html=1;" parent="1" vertex="1">
          <mxGeometry x="435" y="3140" width="120" height="60" as="geometry" />
        </mxCell>
        <mxCell id="ZXpeuByK33yPIrJJZpgC-173" value="&lt;font size=&quot;3&quot;&gt;注册中心&lt;/font&gt;" style="rounded=0;whiteSpace=wrap;html=1;" parent="1" vertex="1">
          <mxGeometry x="280" y="3140" width="120" height="60" as="geometry" />
        </mxCell>
        <mxCell id="ZXpeuByK33yPIrJJZpgC-174" value="&lt;font size=&quot;3&quot;&gt;集群监控&lt;/font&gt;" style="rounded=0;whiteSpace=wrap;html=1;" parent="1" vertex="1">
          <mxGeometry x="-80" y="3287" width="120" height="60" as="geometry" />
        </mxCell>
        <mxCell id="ZXpeuByK33yPIrJJZpgC-177" value="" style="rounded=0;whiteSpace=wrap;html=1;fontSize=14;fillColor=#dae8fc;strokeColor=#6c8ebf;" parent="1" vertex="1">
          <mxGeometry x="600" y="3077" width="150" height="333" as="geometry" />
        </mxCell>
        <mxCell id="ZXpeuByK33yPIrJJZpgC-178" value="&lt;font style=&quot;font-size: 18px&quot;&gt;链路日志&lt;/font&gt;" style="rounded=0;whiteSpace=wrap;html=1;fontSize=14;fillColor=none;" parent="1" vertex="1">
          <mxGeometry x="600" y="3077" width="150" height="43" as="geometry" />
        </mxCell>
        <mxCell id="ZXpeuByK33yPIrJJZpgC-179" value="&lt;font size=&quot;3&quot;&gt;日志跟踪&lt;/font&gt;" style="rounded=0;whiteSpace=wrap;html=1;" parent="1" vertex="1">
          <mxGeometry x="615" y="3227" width="120" height="60" as="geometry" />
        </mxCell>
        <mxCell id="ZXpeuByK33yPIrJJZpgC-181" value="" style="rounded=0;whiteSpace=wrap;html=1;fontSize=14;fillColor=#dae8fc;strokeColor=#6c8ebf;" parent="1" vertex="1">
          <mxGeometry x="81.5" y="3246.25" width="178.5" height="163.75" as="geometry" />
        </mxCell>
        <mxCell id="ZXpeuByK33yPIrJJZpgC-182" value="&lt;font style=&quot;font-size: 18px&quot;&gt;微服务&lt;/font&gt;" style="rounded=0;whiteSpace=wrap;html=1;fontSize=14;fillColor=none;" parent="1" vertex="1">
          <mxGeometry x="81.5" y="3246.25" width="178.5" height="43" as="geometry" />
        </mxCell>
        <mxCell id="ZXpeuByK33yPIrJJZpgC-183" value="&lt;font size=&quot;3&quot;&gt;业务中心&lt;/font&gt;" style="rounded=0;whiteSpace=wrap;html=1;" parent="1" vertex="1">
          <mxGeometry x="110" y="3310" width="120" height="60" as="geometry" />
        </mxCell>
        <mxCell id="ZXpeuByK33yPIrJJZpgC-184" value="" style="rounded=0;whiteSpace=wrap;html=1;fontSize=14;fillColor=#dae8fc;strokeColor=#6c8ebf;" parent="1" vertex="1">
          <mxGeometry x="396.5" y="3246.25" width="178.5" height="163.75" as="geometry" />
        </mxCell>
        <mxCell id="ZXpeuByK33yPIrJJZpgC-185" value="&lt;font style=&quot;font-size: 18px&quot;&gt;微服务&lt;/font&gt;" style="rounded=0;whiteSpace=wrap;html=1;fontSize=14;fillColor=none;" parent="1" vertex="1">
          <mxGeometry x="396.5" y="3246.25" width="178.5" height="43" as="geometry" />
        </mxCell>
        <mxCell id="ZXpeuByK33yPIrJJZpgC-186" value="&lt;font size=&quot;3&quot;&gt;基础配置&lt;/font&gt;" style="rounded=0;whiteSpace=wrap;html=1;" parent="1" vertex="1">
          <mxGeometry x="425" y="3310" width="120" height="60" as="geometry" />
        </mxCell>
        <mxCell id="ZXpeuByK33yPIrJJZpgC-193" value="" style="rounded=0;whiteSpace=wrap;html=1;fillColor=#ffe6cc;strokeColor=#d79b00;" parent="1" vertex="1">
          <mxGeometry x="-173" y="3487" width="980" height="100" as="geometry" />
        </mxCell>
        <mxCell id="ZXpeuByK33yPIrJJZpgC-194" value="&lt;font size=&quot;3&quot;&gt;数据层&lt;/font&gt;" style="rounded=0;whiteSpace=wrap;html=1;fillColor=#f5f5f5;strokeColor=#666666;fontColor=#333333;" parent="1" vertex="1">
          <mxGeometry x="-313" y="3507" width="120" height="60" as="geometry" />
        </mxCell>
        <mxCell id="ZXpeuByK33yPIrJJZpgC-195" value="&lt;font size=&quot;3&quot;&gt;Redis&lt;/font&gt;" style="rounded=0;whiteSpace=wrap;html=1;" parent="1" vertex="1">
          <mxGeometry x="71" y="3507" width="120" height="60" as="geometry" />
        </mxCell>
        <mxCell id="ZXpeuByK33yPIrJJZpgC-196" value="&lt;font size=&quot;3&quot;&gt;MariaDb&lt;/font&gt;" style="rounded=0;whiteSpace=wrap;html=1;" parent="1" vertex="1">
          <mxGeometry x="469" y="3510" width="120" height="60" as="geometry" />
        </mxCell>
      </root>
    </mxGraphModel>
  </diagram>
</mxfile>
